<?xml version="1.0" encoding="iso-8859-1"?>
<!-- Generator: Adobe Illustrator 19.2.1, SVG Export Plug-In . SVG Version: 6.00 Build 0)  -->
<svg version="1.1" id="Layer_1" xmlns="http://www.w3.org/2000/svg" xmlns:xlink="http://www.w3.org/1999/xlink" x="0px" y="0px"
	 viewBox="0 0 80 100" style="enable-background:new 0 0 80 100;" xml:space="preserve">
<g>
	<g>
		<rect x="43.151" y="67.704" style="fill:#57C1E8;" width="8.728" height="8.652"/>
		<rect x="49.703" y="78.678" style="fill:#B6BD00;" width="8.725" height="8.651"/>
		<rect x="69.911" y="83.792" style="fill:#B6BD00;" width="8.728" height="8.653"/>
		<rect x="29.757" y="29.972" style="fill:#FF5000;" width="8.727" height="8.654"/>
		<rect x="60.366" y="74.086" style="fill:#FF5000;" width="8.728" height="8.651"/>
		<rect x="11.207" y="17.566" style="fill:#FF5000;" width="8.729" height="8.654"/>
		<rect x="54.798" y="63.056" style="fill:#B6BD00;" width="8.728" height="8.654"/>
		<rect x="43.662" y="55.709" style="fill:#FF5000;" width="8.732" height="8.639"/>
		<rect x="1" y="7.922" style="fill:#FF5000;" width="8.731" height="8.641"/>
		<rect x="32.072" y="60.764" style="fill:#57C1E8;" width="8.729" height="8.643"/>
		<rect x="33.603" y="46.454" style="fill:#57C1E8;" width="8.728" height="8.645"/>
		<rect x="44.131" y="41.464" style="fill:#57C1E8;" width="8.728" height="8.644"/>
		<rect x="32.734" y="16.503" style="fill:#57C1E8;" width="8.731" height="8.644"/>
		<rect x="44.66" y="10.057" style="fill:#57C1E8;" width="8.735" height="8.646"/>
		<rect x="52.785" y="22.055" style="fill:#B6BD00;" width="8.728" height="8.65"/>
		<rect x="32.025" y="73.857" style="fill:#B6BD00;" width="8.73" height="8.648"/>
		<rect x="23.26" y="40.544" style="fill:#FF5000;" width="8.734" height="8.642"/>
		<rect x="21.684" y="54.05" style="fill:#B6BD00;" width="8.735" height="8.646"/>
		<rect x="41.474" y="27.74" style="fill:#B6BD00;" width="8.736" height="8.647"/>
		<rect x="58.754" y="6.296" style="fill:#57C1E8;" width="8.739" height="8.648"/>
		<rect x="9.715" y="59.018" style="fill:#B6BD00;" width="8.72" height="8.649"/>
		<rect x="17.618" y="28.588" style="fill:#B6BD00;" width="8.72" height="8.65"/>
		<rect x="12.115" y="44.88" style="fill:#57C1E8;" width="8.73" height="8.65"/>
		<rect x="2.385" y="36.406" style="fill:#FF5000;" width="8.731" height="8.65"/>
	</g>
</g>
<g>
</g>
<g>
</g>
<g>
</g>
<g>
</g>
<g>
</g>
<g>
</g>
</svg>
