<?xml version="1.0" encoding="utf-8"?>
<!-- Generator: Adobe Illustrator 19.2.1, SVG Export Plug-In . SVG Version: 6.00 Build 0)  -->
<svg version="1.1" id="Layer_2" xmlns="http://www.w3.org/2000/svg" xmlns:xlink="http://www.w3.org/1999/xlink" x="0px" y="0px"
	 viewBox="0 0 170 116" style="enable-background:new 0 0 170 116;" xml:space="preserve">
<style type="text/css">
	.st0{fill:none;stroke:#DA0E16;stroke-width:2.8;stroke-linecap:round;stroke-linejoin:round;stroke-miterlimit:10;}
	.st1{fill:#ECECEC;stroke:#575756;stroke-width:2.8;stroke-linecap:round;stroke-linejoin:round;stroke-miterlimit:10;}
</style>
<g>
	<path class="st0" d="M72.7,62.4L56.4,76.9c-3.9,3.4-4.1,9.3-0.4,13c3.7,3.7,9.5,3.5,13-0.4l13.9-16.8 M64.9,85.5
		c-1.3,1.3-3.3,1.3-4.6,0c-1.3-1.3-1.3-3.3,0-4.6c1.3-1.3,3.3-1.3,4.6,0C66.2,82.2,66.2,84.2,64.9,85.5z"/>
	<path class="st0" d="M96.3,59.5l2.9-3.3c1.9,1.2,10.1,5.5,17.8-2.2c8.7-8.7,4.5-17.2,4.5-17.2s-7,7-9.2,9.2
		c-2.2,2.2-3.7,2.6-5.9,0.3c-0.6-0.6-1.3-1.3-1.8-1.8c0,0-1.1-1.1-2.6-2.6c-0.6-0.6-1.2-1.2-1.8-1.8c-2.2-2.2-1.9-3.7,0.3-5.9
		c2.2-2.2,9.2-9.2,9.2-9.2s-8.5-4.2-17.2,4.5c-7.6,7.6-3.3,15.9-2.2,17.8l-3.4,2.8"/>
	<path class="st1" d="M105.1,67.2l-2.1-3.3c-0.8-1.3-2.4-1.5-3.5-0.4l-1.9,1.9l-1.7,1.7L76.8,47.9L61.4,32.5l-3.1-5.2l-6.4-4.7
		L47.6,27l4.7,6.4l5.2,3.1l15.4,15.4L92,71.1l-1.7,1.7l-1.9,1.9c-1.1,1.1-0.9,2.6,0.4,3.5l3.3,2.1l10.4,10.4c3.6,3.6,9.5,3.6,13.1,0
		l0,0c3.6-3.6,3.6-9.5,0-13.1L105.1,67.2z M111.3,86.4c-1,1-2.7,1-3.7,0l-9.4-9.4c-1-1-1-2.7,0-3.7s2.7-1,3.7,0l9.4,9.4
		C112.3,83.7,112.3,85.4,111.3,86.4z"/>
</g>
</svg>
