<?xml version="1.0" encoding="utf-8"?>
<!-- Generator: Adobe Illustrator 19.2.1, SVG Export Plug-In . SVG Version: 6.00 Build 0)  -->
<svg version="1.1" id="Layer_1" xmlns="http://www.w3.org/2000/svg" xmlns:xlink="http://www.w3.org/1999/xlink" x="0px" y="0px"
	 viewBox="0 0 512 512" style="enable-background:new 0 0 512 512;" xml:space="preserve">
<style type="text/css">
	.st0{fill:#FFFFFF;}
</style>
<path class="st0" d="M256,0C114.6,0,0,114.6,0,256s114.6,256,256,256s256-114.6,256-256S397.4,0,256,0z M256,480
	C132.5,480,32,379.5,32,256S132.5,32,256,32s224,100.5,224,224S379.5,480,256,480z M335.6,265.8c6.1,10.3,9.2,22.3,9.2,36.1
	c0,21.2-6.3,38.8-18.9,52.9c-12.6,14.1-30.8,22.4-54.6,24.9V416h-30.3v-36c-39.7-4.1-64.2-27.1-73.7-69.1l46.9-12.2
	c4.3,26.4,18.7,39.6,43.1,39.6c11.4,0,19.8-2.8,25.2-8.5s8.1-12.5,8.1-20.5c0-8.3-2.7-14.6-8.1-18.8c-5.4-4.3-17.3-9.7-35.9-16.3
	c-16.7-5.8-29.7-11.5-39.1-17.2c-9.4-5.6-17-13.5-22.8-23.7c-5.8-10.2-8.8-22.1-8.8-35.6c0-17.7,5.3-33.7,15.7-47.9
	c10.4-14.2,26.9-22.8,49.3-26V96h30.3v28c33.9,4.1,55.8,23.2,65.8,57.5l-41.8,17.1c-8.2-23.5-20.7-35.3-37.8-35.3
	c-8.6,0-15.4,2.6-20.6,7.9c-5.2,5.3-7.8,11.6-7.8,19.1c0,7.6,2.5,13.5,7.5,17.6c5,4.1,15.7,9.1,32.1,15.1
	c18,6.6,32.1,12.8,42.3,18.6C321.3,247.5,329.4,255.6,335.6,265.8z"/>
</svg>
