<svg width="20" height="20" viewBox="0 0 20 20" fill="none" xmlns="http://www.w3.org/2000/svg">
<path d="M18.9929 16.9786C19.5491 17.5348 19.5491 18.4366 18.9929 18.9929C18.4366 19.5491 17.5348 19.5491 16.9786 18.9929L10 12.0143L3.02143 18.9929C2.4652 19.5491 1.56337 19.5491 1.00714 18.9929C0.450913 18.4366 0.450913 17.5348 1.00714 16.9786L7.98571 10L1.00714 3.02143C0.450912 2.4652 0.450913 1.56337 1.00714 1.00714C1.56337 0.450912 2.4652 0.450912 3.02143 1.00714L10 7.98571L16.9786 1.00714C17.5348 0.450912 18.4366 0.450912 18.9929 1.00714C19.5491 1.56337 19.5491 2.4652 18.9929 3.02143L12.0143 10L18.9929 16.9786Z" fill="#5E5E5E"/>
</svg>
