<svg width="28" height="28" viewBox="0 0 28 28" fill="none" xmlns="http://www.w3.org/2000/svg">
<path d="M26.59 23.77C27.3687 24.5487 27.3687 25.8113 26.59 26.59C25.8113 27.3687 24.5487 27.3687 23.77 26.59L14 16.82L4.23 26.59C3.45128 27.3687 2.18872 27.3687 1.41 26.59C0.631278 25.8113 0.631279 24.5487 1.41 23.77L11.18 14L1.41 4.23C0.631279 3.45128 0.631278 2.18872 1.41 1.41C2.18872 0.631279 3.45128 0.631279 4.23 1.41L14 11.18L23.77 1.41C24.5487 0.631279 25.8113 0.631279 26.59 1.41C27.3687 2.18872 27.3687 3.45128 26.59 4.23L16.82 14L26.59 23.77Z" fill="white"/>
</svg>
