<svg width="1492" height="682" viewBox="0 0 1492 682" fill="none" xmlns="http://www.w3.org/2000/svg">
<path d="M0 9.99999C0 4.47714 4.47715 0 10 0H1482C1487.52 0 1492 4.47715 1492 10V672C1492 677.523 1487.52 682 1482 682H10C4.47717 682 0 677.523 0 672V9.99999Z" fill="white"/>
<mask id="mask0" mask-type="alpha" maskUnits="userSpaceOnUse" x="0" y="0" width="1492" height="682">
<path d="M0 9.99999C0 4.47714 4.47715 0 10 0H1482C1487.52 0 1492 4.47715 1492 10V672C1492 677.523 1487.52 682 1482 682H10C4.47717 682 0 677.523 0 672V9.99999Z" fill="white"/>
</mask>
<g mask="url(#mask0)">
<path opacity="0.8" fill-rule="evenodd" clip-rule="evenodd" d="M266.821 547.361C269.576 584.087 254.658 621.116 230.826 651.485C206.988 681.863 172.704 703.361 134.931 715.432C97.2424 727.476 57.1459 729.084 19.8499 718.905C-17.8115 708.626 -51.5563 688.233 -73.9706 658.417C-96.2835 628.735 -107.305 591.815 -103.528 554.783C-99.9185 519.382 -78.225 488.191 -53.7591 460.21C-30.4599 433.564 -1.3929 413.224 32.1396 399.625C68.2029 385 108.075 368.461 144.245 379.91C180.156 391.278 194.996 428.811 216.305 457.921C237.13 486.369 264.195 512.357 266.821 547.361Z" fill="url(#paint0_linear)" fill-opacity="0.5"/>
<path opacity="0.6" fill-rule="evenodd" clip-rule="evenodd" d="M102.981 413.362C62.3948 446.025 12.6814 459.929 -33.8515 458.862C-80.3987 457.795 -121.99 438.314 -154.545 407.458C-187.028 376.671 -208.786 334.856 -215.686 286.519C-222.654 237.709 -216.122 184.93 -193.196 136.716C-170.374 88.7186 -133.672 47.0097 -89.4919 21.1226C-47.2567 -3.62481 81.8806 -10.18 126 -6.49977C168.016 -2.99503 225.306 -43.5599 257.5 -18.4996C292.125 8.45209 312 122 274.501 178C246.635 219.615 202.727 240.255 180.059 286.71C157.906 332.109 141.665 382.23 102.981 413.362Z" fill="url(#paint1_linear)" fill-opacity="0.5"/>
<path fill-rule="evenodd" clip-rule="evenodd" d="M1423.5 253.5C1442.5 234.5 1531.38 220.592 1570 253.5C1608.63 286.417 1676.66 407.996 1691.27 461.341C1705.86 514.567 1706.9 571.563 1692.78 624.962C1678.52 678.885 1651.3 727.567 1612.2 760.44C1573.28 793.163 1525.3 810.059 1477.55 805.906C1431.91 801.935 1392.17 772.096 1356.66 738.207C1322.84 705.935 1256.52 721 1227 639C1197.48 557 1216.46 503.866 1243 469C1266.6 438 1292.84 416.776 1331 385.5C1368.29 354.934 1368.96 308.043 1423.5 253.5Z" fill="url(#paint2_linear)" fill-opacity="0.3"/>
<path fill-rule="evenodd" clip-rule="evenodd" d="M1290.5 80.5C1308.82 34.9999 1329.15 22.7832 1360 6.4999C1390.86 -9.78835 1462.52 -9.80848 1495.5 -1.4998C1528.41 6.79027 1514.3 36.5921 1537.12 65.7007C1560.15 95.0946 1575.86 132.011 1579.1 171.925C1582.34 211.658 1574.11 252.342 1555.01 285.402C1536.74 317.007 1507.09 335.185 1476.83 348.878C1448.01 361.917 1417.76 365.978 1387.2 361.33C1354.35 356.331 1321.43 355.222 1300 325.5C1278.73 295.99 1302.75 234.168 1300 195.5C1297.31 157.71 1276.2 116 1290.5 80.5Z" fill="url(#paint3_linear)" fill-opacity="0.6"/>
<path fill-rule="evenodd" clip-rule="evenodd" d="M1184.49 55.087C1187.09 48.1177 1192.72 43.2243 1199.31 40.609C1205.91 37.993 1213.54 38.2412 1220.99 40.6137C1228.42 42.9809 1235.39 47.5243 1240.9 53.8603C1246.46 60.2584 1250.51 68.0122 1251.85 76.103C1253.18 84.1571 1251.98 92.1582 1248.25 98.3953C1244.68 104.358 1238.38 107.379 1231.88 109.487C1225.69 111.493 1219.03 111.665 1212.18 110.08C1204.82 108.375 1196.64 106.557 1191.43 100.127C1186.26 93.7431 1186.85 85.171 1185.65 77.3412C1184.47 69.6892 1182.02 61.7297 1184.49 55.087Z" fill="#048AF5" fill-opacity="0.1"/>
<path fill-rule="evenodd" clip-rule="evenodd" d="M334.957 665.296C329.166 673.209 319.079 677.474 308.021 678.539C296.959 679.604 284.95 676.703 273.759 671.187C262.593 665.684 252.682 657.592 245.515 647.733C238.277 637.777 233.756 626.623 233.612 615.965C233.469 605.355 237.308 595.668 244.721 589.065C251.807 582.752 262.496 581.074 273.287 580.62C283.563 580.187 294.116 582.224 304.557 586.545C315.786 591.191 328.266 596.255 334.94 606.132C341.567 615.937 338.536 626.548 338.539 636.833C338.542 646.884 340.476 657.754 334.957 665.296Z" fill="url(#paint4_linear)" fill-opacity="0.5"/>
<path fill-rule="evenodd" clip-rule="evenodd" d="M1212.23 594.119C1203.64 597.732 1193.95 598.541 1185.33 597.349C1176.7 596.157 1169.57 592.525 1164.49 587.521C1159.42 582.529 1156.69 576.249 1156.93 569.4C1157.18 562.484 1160.07 555.322 1165.86 549.159C1171.62 543.025 1179.77 538.072 1188.81 535.479C1197.45 533 1206.15 533.779 1214.25 535.279C1221.95 536.707 1228.5 539.604 1233.7 543.797C1239.29 548.307 1245.56 553.261 1244.95 560.039C1244.34 566.769 1236.27 572.385 1230.58 578.31C1225.02 584.1 1220.41 590.676 1212.23 594.119Z" fill="url(#paint5_linear)" fill-opacity="0.5"/>
<path fill-rule="evenodd" clip-rule="evenodd" d="M232.449 303.053C234.594 312.608 232.274 322.933 227.435 331.855C222.594 340.78 214.759 347.776 205.669 352.429C196.599 357.072 186.509 359.063 176.663 357.843C166.721 356.612 157.372 352.566 150.522 345.598C143.702 338.662 139.457 329.379 138.955 319.489C138.475 310.034 142.74 300.979 147.834 292.661C152.685 284.739 159.245 278.251 167.201 273.362C175.757 268.104 185.203 262.194 194.814 263.791C204.355 265.378 209.592 274.672 216.134 281.497C222.528 288.168 230.406 293.946 232.449 303.053Z" fill="#048AF5" fill-opacity="0.11"/>
<g filter="url(#filter0_f)">
<path d="M1492 100C1492 162.96 1423.05 214 1338 214C1252.95 214 1184 162.96 1184 100C1184 37.0395 1252.95 -14 1338 -14C1423.05 -14 1492 37.0395 1492 100Z" fill="url(#paint6_linear)" fill-opacity="0.4"/>
</g>
<g filter="url(#filter1_f)">
<ellipse cx="263.463" cy="293.646" rx="83" ry="112.5" transform="rotate(33.6894 263.463 293.646)" fill="#B1DBFC" fill-opacity="0.1"/>
</g>
<g filter="url(#filter2_f)">
<ellipse cx="1291" cy="340.5" rx="83" ry="112.5" fill="#B1DBFC" fill-opacity="0.2"/>
</g>
<g filter="url(#filter3_f)">
<ellipse cx="293.501" cy="94" rx="126.5" ry="97" fill="url(#paint7_linear)" fill-opacity="0.2"/>
</g>
<g filter="url(#filter4_f)">
<path d="M1387 554.499C1387 603.1 1328.35 642.499 1256 642.499C1183.65 642.499 1021 632.101 1021 583.5C1021 534.899 1346.15 283 1418.5 283C1490.85 283 1387 505.898 1387 554.499Z" fill="url(#paint8_linear)" fill-opacity="0.9"/>
</g>
<path opacity="0.6" d="M1562.68 519.155C1595.95 566.54 1564.65 600.544 1494.14 650.048C1423.64 699.552 1339.51 701.271 1306.24 653.886C1272.97 606.502 1303.16 527.958 1373.66 478.455C1444.16 428.951 1529.41 471.771 1562.68 519.155Z" fill="url(#paint9_linear)"/>
<path d="M149.501 379.538C202.877 331.152 260.02 334.543 315.211 379.538C370.402 424.533 329.275 484.671 303.882 515.819C248.239 584.071 158.391 602.924 103.2 557.929C48.0088 512.934 93.8584 447.79 149.501 379.538Z" fill="url(#paint10_linear)" fill-opacity="0.9"/>
<ellipse cx="1306.01" cy="486.589" rx="136.433" ry="146.527" transform="rotate(-86.3063 1306.01 486.589)" fill="url(#paint11_linear)" fill-opacity="0.7"/>
<rect width="561" height="682" fill="url(#paint12_linear)" fill-opacity="0.4"/>
<rect width="602" height="682" transform="matrix(-1 0 0 1 1501 0)" fill="url(#paint13_linear)" fill-opacity="0.5"/>
<ellipse cx="1340.61" cy="275.977" rx="188.516" ry="159.716" transform="rotate(14.5594 1340.61 275.977)" fill="url(#paint14_linear)"/>
<path opacity="0.9" d="M129.29 287.353C57.885 251.462 26.0797 170.481 58.2508 106.478C90.422 42.474 144.762 -19.7444 216.167 16.1472C287.572 52.0387 349.003 172.449 316.831 236.452C284.66 300.456 200.695 323.245 129.29 287.353Z" fill="url(#paint15_linear)"/>
<path opacity="0.9" d="M160.243 256.632C156.754 318.393 94.4309 365.099 21.0394 360.954C-52.3521 356.808 -161.359 232.716 -157.871 170.955C-154.382 109.195 -34.4441 110.758 38.9474 114.903C112.339 119.049 163.731 194.872 160.243 256.632Z" fill="url(#paint16_linear)" fill-opacity="0.7"/>
</g>
<defs>
<filter id="filter0_f" x="1134" y="-64" width="408" height="328" filterUnits="userSpaceOnUse" color-interpolation-filters="sRGB">
<feFlood flood-opacity="0" result="BackgroundImageFix"/>
<feBlend mode="normal" in="SourceGraphic" in2="BackgroundImageFix" result="shape"/>
<feGaussianBlur stdDeviation="25" result="effect1_foregroundBlur"/>
</filter>
<filter id="filter1_f" x="82" y="104" width="362.927" height="379.291" filterUnits="userSpaceOnUse" color-interpolation-filters="sRGB">
<feFlood flood-opacity="0" result="BackgroundImageFix"/>
<feBlend mode="normal" in="SourceGraphic" in2="BackgroundImageFix" result="shape"/>
<feGaussianBlur stdDeviation="25" result="effect1_foregroundBlur"/>
</filter>
<filter id="filter2_f" x="1158" y="178" width="266" height="325" filterUnits="userSpaceOnUse" color-interpolation-filters="sRGB">
<feFlood flood-opacity="0" result="BackgroundImageFix"/>
<feBlend mode="normal" in="SourceGraphic" in2="BackgroundImageFix" result="shape"/>
<feGaussianBlur stdDeviation="25" result="effect1_foregroundBlur"/>
</filter>
<filter id="filter3_f" x="117.001" y="-53" width="353" height="294" filterUnits="userSpaceOnUse" color-interpolation-filters="sRGB">
<feFlood flood-opacity="0" result="BackgroundImageFix"/>
<feBlend mode="normal" in="SourceGraphic" in2="BackgroundImageFix" result="shape"/>
<feGaussianBlur stdDeviation="25" result="effect1_foregroundBlur"/>
</filter>
<filter id="filter4_f" x="971.001" y="233" width="523.122" height="459.499" filterUnits="userSpaceOnUse" color-interpolation-filters="sRGB">
<feFlood flood-opacity="0" result="BackgroundImageFix"/>
<feBlend mode="normal" in="SourceGraphic" in2="BackgroundImageFix" result="shape"/>
<feGaussianBlur stdDeviation="25" result="effect1_foregroundBlur"/>
</filter>
<linearGradient id="paint0_linear" x1="296.5" y1="588.5" x2="28.5" y2="403" gradientUnits="userSpaceOnUse">
<stop stop-color="#4CA51A"/>
<stop offset="1" stop-color="#C9F0B3"/>
</linearGradient>
<linearGradient id="paint1_linear" x1="140.5" y1="116" x2="-13.9345" y2="459.344" gradientUnits="userSpaceOnUse">
<stop stop-color="#FF6230"/>
<stop offset="1" stop-color="#F50404" stop-opacity="0"/>
</linearGradient>
<linearGradient id="paint2_linear" x1="1284" y1="376.5" x2="1429.5" y2="566" gradientUnits="userSpaceOnUse">
<stop stop-color="#048AF5"/>
<stop offset="1" stop-color="#048AF5" stop-opacity="0"/>
</linearGradient>
<linearGradient id="paint3_linear" x1="1233.5" y1="334" x2="1473.05" y2="9.11692" gradientUnits="userSpaceOnUse">
<stop stop-color="#4CA51A"/>
<stop offset="1" stop-color="#4CA51A" stop-opacity="0"/>
</linearGradient>
<linearGradient id="paint4_linear" x1="251.166" y1="595.106" x2="326.367" y2="682.944" gradientUnits="userSpaceOnUse">
<stop stop-color="#FF7373"/>
<stop offset="1" stop-color="#FEE7E7"/>
</linearGradient>
<linearGradient id="paint5_linear" x1="1190.15" y1="540.011" x2="1206.64" y2="600.019" gradientUnits="userSpaceOnUse">
<stop stop-color="#F5C7C7"/>
<stop offset="1" stop-color="#FEE7E7"/>
</linearGradient>
<linearGradient id="paint6_linear" x1="1171" y1="150" x2="1389" y2="-155.5" gradientUnits="userSpaceOnUse">
<stop stop-color="#B1DBFC"/>
<stop offset="1" stop-color="#B1DBFC" stop-opacity="0"/>
</linearGradient>
<linearGradient id="paint7_linear" x1="390.502" y1="94.0007" x2="210.002" y2="15.0007" gradientUnits="userSpaceOnUse">
<stop stop-color="#B1DBFC"/>
<stop offset="1" stop-color="#B1DBFC" stop-opacity="0"/>
</linearGradient>
<linearGradient id="paint8_linear" x1="1498.5" y1="601.5" x2="1318" y2="402.5" gradientUnits="userSpaceOnUse">
<stop stop-color="#B1DBFC"/>
<stop offset="1" stop-color="#B1DBFC" stop-opacity="0"/>
</linearGradient>
<linearGradient id="paint9_linear" x1="1319.5" y1="550.5" x2="1487.97" y2="713.572" gradientUnits="userSpaceOnUse">
<stop stop-color="#FF6230"/>
<stop offset="1" stop-color="white" stop-opacity="0"/>
</linearGradient>
<linearGradient id="paint10_linear" x1="165.136" y1="576.945" x2="276.554" y2="299.467" gradientUnits="userSpaceOnUse">
<stop stop-color="white"/>
<stop offset="1" stop-color="white" stop-opacity="0"/>
</linearGradient>
<linearGradient id="paint11_linear" x1="1186.32" y1="438.699" x2="1457.01" y2="520.463" gradientUnits="userSpaceOnUse">
<stop stop-color="white"/>
<stop offset="1" stop-color="white" stop-opacity="0"/>
</linearGradient>
<linearGradient id="paint12_linear" x1="-107.742" y1="682" x2="552.821" y2="315.667" gradientUnits="userSpaceOnUse">
<stop stop-color="#6ABBFD"/>
<stop offset="1" stop-color="#6ABBFD" stop-opacity="0"/>
<stop offset="1" stop-color="#6ABBFD" stop-opacity="0"/>
</linearGradient>
<linearGradient id="paint13_linear" x1="-53.5" y1="855.83" x2="547.803" y2="475.905" gradientUnits="userSpaceOnUse">
<stop stop-color="#6ABBFD"/>
<stop offset="1" stop-color="#6ABBFD" stop-opacity="0"/>
</linearGradient>
<linearGradient id="paint14_linear" x1="1194.99" y1="117.519" x2="1234.53" y2="474.987" gradientUnits="userSpaceOnUse">
<stop stop-color="white" stop-opacity="0.74"/>
<stop offset="1" stop-color="white" stop-opacity="0"/>
</linearGradient>
<linearGradient id="paint15_linear" x1="324.164" y1="172.56" x2="55.5418" y2="120.438" gradientUnits="userSpaceOnUse">
<stop stop-color="white"/>
<stop offset="1" stop-color="white" stop-opacity="0"/>
</linearGradient>
<linearGradient id="paint16_linear" x1="-26.4618" y1="225.969" x2="6.76519" y2="364.38" gradientUnits="userSpaceOnUse">
<stop stop-color="white"/>
<stop offset="1" stop-color="white" stop-opacity="0"/>
</linearGradient>
</defs>
</svg>
