<svg width="39" height="39" viewBox="0 0 39 39" fill="none" xmlns="http://www.w3.org/2000/svg">
<path d="M16.9549 13.5281V16.2133H14.9893V19.4951H16.9549V29.251H20.9953V19.4951H23.7058C23.7058 19.4951 23.9612 17.9215 24.0841 16.1996H21.0109V13.9571C21.0109 13.6198 21.4516 13.1693 21.8884 13.1693H24.088V9.75098H21.0947C16.8554 9.75098 16.9549 13.0367 16.9549 13.5281Z" fill="white"/>
<path d="M19.5 35.1C23.6374 35.1 27.6053 33.4564 30.5309 30.5309C33.4564 27.6053 35.1 23.6374 35.1 19.5C35.1 15.3626 33.4564 11.3947 30.5309 8.46913C27.6053 5.54357 23.6374 3.9 19.5 3.9C15.3626 3.9 11.3947 5.54357 8.46913 8.46913C5.54357 11.3947 3.9 15.3626 3.9 19.5C3.9 23.6374 5.54357 27.6053 8.46913 30.5309C11.3947 33.4564 15.3626 35.1 19.5 35.1ZM19.5 39C8.73015 39 0 30.2698 0 19.5C0 8.73015 8.73015 0 19.5 0C30.2698 0 39 8.73015 39 19.5C39 30.2698 30.2698 39 19.5 39Z" fill="white"/>
</svg>
