<svg width="32" height="32" viewBox="0 0 32 32" fill="none" xmlns="http://www.w3.org/2000/svg">
<path d="M17.4232 25.263V16.8123H20.2371L20.6583 13.5189H17.4232V11.4162C17.4232 10.4627 17.6859 9.81282 19.0424 9.81282L20.7724 9.81201V6.86645C20.473 6.82646 19.4462 6.73682 18.2515 6.73682C15.7572 6.73682 14.0496 8.27155 14.0496 11.0902V13.519H11.2285V16.8124H14.0495V25.2631L17.4232 25.263Z" fill="#048AF5"/>
<path d="M1 16C1 7.71573 7.71573 1 16 1C24.2843 1 31 7.71573 31 16C31 24.2843 24.2843 31 16 31C7.71573 31 1 24.2843 1 16Z" stroke="#048AF5" stroke-width="2"/>
</svg>
