<svg width="119" height="58" viewBox="0 0 119 58" fill="none" xmlns="http://www.w3.org/2000/svg">
<path d="M0 30.8145H11.2612V33.0452H2.25264V39.7389H11.2612V41.9696H0V30.8145Z" fill="#BCBEC0"/>
<path d="M15.3149 30.8145H26.5755V41.969H15.3149V30.8145ZM17.5663 39.7389H24.3235V33.0452H17.5663V39.7389Z" fill="#BCBEC0"/>
<path d="M35.0534 33.0452H32.8015V41.969H30.5488V30.8145H41.8094V41.969H39.5581V33.0452H37.3061V41.969H35.0534V33.0452Z" fill="#BCBEC0"/>
<path d="M45.7858 30.8145H57.0464V37.5068H48.0365V41.969H45.7852V30.8145H45.7858ZM48.0365 35.2773H54.7931V33.0452H48.0365V35.2773Z" fill="#BCBEC0"/>
<path d="M61.0532 30.8145H63.3059V39.7382H70.0625V30.8145H72.3138V41.969H61.0532V30.8145Z" fill="#BCBEC0"/>
<path d="M76.1655 30.8145H87.4254V33.0452H82.9221V41.969H80.6688V33.0452H76.1655V30.8145Z" fill="#BCBEC0"/>
<path d="M91.3994 30.8145H102.66V33.0452H93.6521V35.2773H98.1567V37.5068H93.6521V39.7389H102.661V41.9696H91.4001V30.8145H91.3994Z" fill="#BCBEC0"/>
<path d="M113.515 37.5068H109.011V41.969H106.759V30.8145H118.02V37.5068H115.767V39.7389H118.02V41.9696H115.767V39.7389H113.515V37.5068ZM109.011 35.2773H115.767V33.0452H109.011V35.2773Z" fill="#BCBEC0"/>
<path d="M15.6134 53.5364H8.85678V57.9999H6.60547V46.8447H17.8654V57.9999H15.6127V53.5364H15.6134ZM8.85678 51.3069H15.6134V49.0755H8.85678V51.3069Z" fill="#048AF5"/>
<path d="M30.9467 49.0748H24.1901V57.9992H21.9375V46.8447H33.198V57.9999H30.9467V49.0748Z" fill="#048AF5"/>
<path d="M37.2695 46.8447H48.5301V49.0755H39.5222V51.3069H48.5294V57.9999H37.2695V55.7691H46.2788V53.5364H37.2695V46.8447Z" fill="#048AF5"/>
<path d="M52.6777 46.8447H54.9291V55.7691H57.1817V46.8447H59.4343V55.7691H61.685V46.8447H63.9383V57.9999H52.6777V46.8447Z" fill="#048AF5"/>
<path d="M67.9468 46.8447H79.2073V49.0755H70.1994V51.3069H74.704V53.5364H70.1994V55.7691H79.2073V57.9999H67.9468V46.8447Z" fill="#048AF5"/>
<path d="M90.0173 53.5364H85.5141V57.9999H83.2607V46.8447H94.5213V53.5364H92.27V55.7691H94.5213V57.9999H92.27V55.7691H90.0167V53.5364H90.0173ZM85.5141 51.3069H92.2706V49.0755H85.5141V51.3069Z" fill="#048AF5"/>
<path d="M98.5933 46.8447H109.858V49.0755H100.845V51.3069H109.854V57.9999H98.5939V55.7691H107.601V53.5364H98.5939V46.8447H98.5933Z" fill="#048AF5"/>
<path d="M62.2981 17.8374H59.7632V20.3505H62.2981V17.8374Z" fill="#048AF5"/>
<path d="M64.2003 21.0244H61.666V23.5375H64.2003V21.0244Z" fill="#4FD405"/>
<path d="M70.0706 22.5103H67.5356V25.0233H70.0706V22.5103Z" fill="#4FD405"/>
<path d="M58.407 6.87744H55.8721V9.3912H58.407V6.87744Z" fill="#FF5722"/>
<path d="M67.2986 19.6904H64.7637V22.2035H67.2986V19.6904Z" fill="#FF5722"/>
<path d="M53.02 3.27344H50.4844V5.7872H53.02V3.27344Z" fill="#FF5722"/>
<path d="M65.6805 16.4868H63.1455V19.0006H65.6805V16.4868Z" fill="#4FD405"/>
<path d="M62.4479 14.353H59.9116V16.8621H62.4479V14.353Z" fill="#FF5722"/>
<path d="M50.0553 0.472656H47.519V2.98244H50.0553V0.472656Z" fill="#FF5722"/>
<path d="M59.0806 15.8213H56.5449V18.3317H59.0806V15.8213Z" fill="#048AF5"/>
<path d="M59.5247 11.665H56.9897V14.1761H59.5247V11.665Z" fill="#048AF5"/>
<path d="M62.5823 10.2153H60.0474V12.7264H62.5823V10.2153Z" fill="#048AF5"/>
<path d="M59.2736 2.96484H56.7373V5.47595H59.2736V2.96484Z" fill="#048AF5"/>
<path d="M62.7388 1.09229H60.2012V3.60339H62.7388V1.09229Z" fill="#048AF5"/>
<path d="M65.096 4.57764H62.561V7.09007H65.096V4.57764Z" fill="#4FD405"/>
<path d="M59.0664 19.624H56.5308V22.1358H59.0664V19.624Z" fill="#4FD405"/>
<path d="M56.5223 9.94824H53.9854V12.4587H56.5223V9.94824Z" fill="#FF5722"/>
<path d="M56.065 13.8711H53.5273V16.3822H56.065V13.8711Z" fill="#4FD405"/>
<path d="M61.8135 6.229H59.2759V8.74077H61.8135V6.229Z" fill="#4FD405"/>
<path d="M66.8332 0H64.2949V2.51177H66.8332V0Z" fill="#048AF5"/>
<path d="M52.5838 15.314H50.0508V17.8264H52.5838V15.314Z" fill="#4FD405"/>
<path d="M54.8797 6.4751H52.3467V8.98753H54.8797V6.4751Z" fill="#4FD405"/>
<path d="M53.2837 11.2075H50.748V13.72H53.2837V11.2075Z" fill="#048AF5"/>
<path d="M50.4577 8.74609H47.9214V11.2585H50.4577V8.74609Z" fill="#FF5722"/>
</svg>
