<svg width="127" height="122" viewBox="0 0 127 122" fill="none" xmlns="http://www.w3.org/2000/svg">
<g filter="url(#filter0_d)">
<path d="M100.138 59.3065L69.6894 86.2224C68.9005 86.9204 67.9732 87.4643 66.9604 87.8228C65.9476 88.1812 64.8692 88.3473 63.7869 88.3116C62.7045 88.2758 61.6394 88.0389 60.6525 87.6143C59.6656 87.1897 58.7762 86.5858 58.0352 85.8372L23.7641 51.2912L25.0498 12.3905L66.2306 13.7516L100.5 48.3365C101.986 49.8449 102.782 51.8452 102.714 53.9006C102.646 55.956 101.72 57.8995 100.138 59.3065V59.3065Z" stroke="#45A1EB" stroke-width="4" stroke-linecap="round" stroke-linejoin="round"/>
<path d="M48.4614 33.8351L75.019 60.6368" stroke="#45A1EB" stroke-width="4" stroke-linecap="round" stroke-linejoin="round"/>
<path d="M59.3994 33.4766L49.5836 42.1535C48.3687 43.2274 47.6441 44.7019 47.569 46.2524C47.4939 47.803 48.0746 49.3027 49.1833 50.4215C50.292 51.5404 51.8379 52.1869 53.4809 52.2187C55.1239 52.2505 56.7295 51.665 57.9443 50.5911L64.4882 44.8065C65.703 43.7325 67.3086 43.1471 68.9516 43.1789C70.5946 43.2107 72.1405 43.8571 73.2492 44.976C74.3579 46.0949 74.9386 47.5946 74.8635 49.1451C74.7884 50.6957 74.0637 52.1701 72.8489 53.244L61.7244 63.0779" stroke="#45A1EB" stroke-width="4" stroke-linecap="round" stroke-linejoin="round"/>
</g>
<defs>
<filter id="filter0_d" x="0.520508" y="0.325562" width="125.544" height="121.299" filterUnits="userSpaceOnUse" color-interpolation-filters="sRGB">
<feFlood flood-opacity="0" result="BackgroundImageFix"/>
<feColorMatrix in="SourceAlpha" type="matrix" values="0 0 0 0 0 0 0 0 0 0 0 0 0 0 0 0 0 0 127 0"/>
<feOffset dy="10"/>
<feGaussianBlur stdDeviation="10"/>
<feColorMatrix type="matrix" values="0 0 0 0 0.641667 0 0 0 0 0.840906 0 0 0 0 1 0 0 0 1 0"/>
<feBlend mode="normal" in2="BackgroundImageFix" result="effect1_dropShadow"/>
<feBlend mode="normal" in="SourceGraphic" in2="effect1_dropShadow" result="shape"/>
</filter>
</defs>
</svg>
