<svg width="125" height="126" viewBox="0 0 125 126" fill="none" xmlns="http://www.w3.org/2000/svg">
<g filter="url(#filter0_d)">
<path d="M103 50.6868C103.015 56.694 101.643 62.6199 98.9948 67.982C95.8549 74.4073 91.0278 79.8118 85.0542 83.5899C79.0807 87.368 72.1966 89.3706 65.1731 89.3734C59.2994 89.3891 53.5051 87.9856 48.2623 85.2772L22.896 93.9248L31.3514 67.982C28.7032 62.6199 27.3309 56.694 27.3462 50.6868C27.3489 43.5036 29.307 36.4631 33.0012 30.3538C36.6954 24.2444 41.9797 19.3077 48.2623 16.0964C53.5051 13.388 59.2994 11.9845 65.1731 12.0001H67.3982C76.674 12.5235 85.4352 16.5277 92.0041 23.2459C98.5731 29.9642 102.488 38.9244 103 48.4111V50.6868Z" stroke="#45A1EB" stroke-width="4" stroke-linecap="round" stroke-linejoin="round"/>
<path d="M67.5819 42.1935C67.1957 42.5807 66.9794 43.1013 66.9794 43.6435C66.9794 44.1857 67.1957 44.7062 67.5819 45.0934L70.9538 48.4077C71.3477 48.7872 71.8774 48.9998 72.429 48.9998C72.9806 48.9998 73.5103 48.7872 73.9042 48.4077L81.8493 40.5986C82.909 42.9003 83.2299 45.4647 82.7691 47.9502C82.3084 50.4356 81.0879 52.7241 79.2704 54.5105C77.4528 56.2969 75.1245 57.4965 72.5958 57.9494C70.067 58.4022 67.4579 58.0869 65.1161 57.0453L50.5536 71.3585C49.7152 72.1826 48.5781 72.6455 47.3925 72.6455C46.2068 72.6455 45.0697 72.1826 44.2313 71.3585C43.3929 70.5345 42.9219 69.4168 42.9219 68.2514C42.9219 67.0861 43.3929 65.9684 44.2313 65.1444L58.7938 50.8312C57.7341 48.5295 57.4132 45.965 57.874 43.4795C58.3347 40.9941 59.5552 38.7056 61.3727 36.9192C63.1903 35.1328 65.5185 33.9332 68.0473 33.4804C70.5761 33.0275 73.1852 33.3429 75.527 34.3844L67.6029 42.1728L67.5819 42.1935Z" stroke="#45A1EB" stroke-width="4" stroke-linecap="round" stroke-linejoin="round"/>
</g>
<defs>
<filter id="filter0_d" x="0.895996" y="0" width="124.104" height="125.925" filterUnits="userSpaceOnUse" color-interpolation-filters="sRGB">
<feFlood flood-opacity="0" result="BackgroundImageFix"/>
<feColorMatrix in="SourceAlpha" type="matrix" values="0 0 0 0 0 0 0 0 0 0 0 0 0 0 0 0 0 0 127 0"/>
<feOffset dy="10"/>
<feGaussianBlur stdDeviation="10"/>
<feColorMatrix type="matrix" values="0 0 0 0 0.641667 0 0 0 0 0.840906 0 0 0 0 1 0 0 0 1 0"/>
<feBlend mode="normal" in2="BackgroundImageFix" result="effect1_dropShadow"/>
<feBlend mode="normal" in="SourceGraphic" in2="effect1_dropShadow" result="shape"/>
</filter>
</defs>
</svg>
