<svg width="127" height="120" viewBox="0 0 127 120" fill="none" xmlns="http://www.w3.org/2000/svg">
<g filter="url(#filter0_d)">
<path d="M74.3236 38.5998V23.3999C74.3236 20.3765 73.0616 17.4769 70.8151 15.339C68.5687 13.2011 65.5218 12 62.3448 12L46.373 46.1998V87.9995H91.4134C93.3393 88.0202 95.2082 87.3779 96.6758 86.1908C98.1433 85.0036 99.1105 83.3518 99.3993 81.5396L104.91 47.3398C105.083 46.2505 105.006 45.1384 104.683 44.0803C104.361 43.0223 103.8 42.0437 103.04 41.2124C102.281 40.381 101.34 39.7168 100.284 39.2657C99.2279 38.8145 98.0813 38.5874 96.9237 38.5998H74.3236Z" stroke="#45A1EB" stroke-width="4" stroke-linecap="round" stroke-linejoin="round"/>
<path d="M41.9647 87.9995H29.9859C27.8679 87.9995 25.8367 87.1988 24.339 85.7735C22.8414 84.3483 22 82.4152 22 80.3996V53.7997C22 51.7841 22.8414 49.851 24.339 48.4258C25.8367 47.0005 27.8679 46.1998 29.9859 46.1998H41.9647" stroke="#45A1EB" stroke-width="4" stroke-linecap="round" stroke-linejoin="round"/>
</g>
<defs>
<filter id="filter0_d" x="0" y="0" width="127" height="120" filterUnits="userSpaceOnUse" color-interpolation-filters="sRGB">
<feFlood flood-opacity="0" result="BackgroundImageFix"/>
<feColorMatrix in="SourceAlpha" type="matrix" values="0 0 0 0 0 0 0 0 0 0 0 0 0 0 0 0 0 0 127 0"/>
<feOffset dy="10"/>
<feGaussianBlur stdDeviation="10"/>
<feColorMatrix type="matrix" values="0 0 0 0 0.641667 0 0 0 0 0.840906 0 0 0 0 1 0 0 0 1 0"/>
<feBlend mode="normal" in2="BackgroundImageFix" result="effect1_dropShadow"/>
<feBlend mode="normal" in="SourceGraphic" in2="effect1_dropShadow" result="shape"/>
</filter>
</defs>
</svg>
