<svg width="39" height="39" viewBox="0 0 39 39" fill="none" xmlns="http://www.w3.org/2000/svg">
<path d="M19.4948 9.49461C13.958 9.49461 9.48956 13.9631 9.48956 19.5C9.48956 25.0369 13.958 29.5054 19.4948 29.5054C25.0315 29.5054 29.5 25.0369 29.5 19.5C29.5 13.9631 25.0315 9.49461 19.4948 9.49461ZM19.4948 26.0028C15.9142 26.0028 12.9921 23.0807 12.9921 19.5C12.9921 15.9193 15.9142 12.9972 19.4948 12.9972C23.0754 12.9972 25.9974 15.9193 25.9974 19.5C25.9974 23.0807 23.0754 26.0028 19.4948 26.0028ZM29.9097 6.75301C28.617 6.75301 27.5731 7.79697 27.5731 9.08972C27.5731 10.3825 28.617 11.4264 29.9097 11.4264C31.2025 11.4264 32.2464 10.3873 32.2464 9.08972C32.2468 8.78275 32.1866 8.47872 32.0693 8.19504C31.952 7.91137 31.7799 7.65362 31.5629 7.43656C31.3458 7.2195 31.0881 7.04739 30.8044 6.9301C30.5207 6.81281 30.2167 6.75263 29.9097 6.75301ZM38.9978 19.5C38.9978 16.8072 39.0222 14.1388 38.871 11.4508C38.7198 8.3287 38.0075 5.55783 35.7245 3.27479C33.4367 0.986866 30.6707 0.279514 27.5487 0.128287C24.8559 -0.0229405 22.1875 0.00145102 19.4996 0.00145102C16.8069 0.00145102 14.1385 -0.0229405 11.4506 0.128287C8.32855 0.279514 5.55773 0.991745 3.27473 3.27479C0.986848 5.56271 0.279509 8.3287 0.128284 11.4508C-0.0229401 14.1436 0.00145099 16.8121 0.00145099 19.5C0.00145099 22.1879 -0.0229401 24.8612 0.128284 27.5492C0.279509 30.6713 0.991727 33.4422 3.27473 35.7252C5.5626 38.0131 8.32855 38.7205 11.4506 38.8717C14.1434 39.0229 16.8117 38.9986 19.4996 38.9986C22.1924 38.9986 24.8608 39.0229 27.5487 38.8717C30.6707 38.7205 33.4415 38.0083 35.7245 35.7252C38.0124 33.4373 38.7198 30.6713 38.871 27.5492C39.0271 24.8612 38.9978 22.1928 38.9978 19.5ZM34.705 31.003C34.3489 31.8909 33.9196 32.5543 33.2318 33.2373C32.544 33.9251 31.8854 34.3544 30.9976 34.7105C28.4316 35.7301 22.3388 35.5008 19.4948 35.5008C16.6508 35.5008 10.553 35.7301 7.98707 34.7154C7.09924 34.3593 6.4358 33.93 5.75285 33.2422C5.06503 32.5543 4.63575 31.8958 4.27964 31.0079C3.26497 28.437 3.49425 22.344 3.49425 19.5C3.49425 16.656 3.26497 10.5581 4.27964 7.9921C4.63575 7.10425 5.06503 6.4408 5.75285 5.75784C6.44068 5.07488 7.09924 4.64071 7.98707 4.2846C10.553 3.26991 16.6508 3.49919 19.4948 3.49919C22.3388 3.49919 28.4365 3.26991 31.0024 4.2846C31.8903 4.64071 32.5537 5.07 33.2367 5.75784C33.9245 6.44568 34.3538 7.10425 34.7099 7.9921C35.7245 10.5581 35.4953 16.656 35.4953 19.5C35.4953 22.344 35.7245 28.437 34.705 31.003Z" fill="white"/>
</svg>
