<svg width="34" height="34" viewBox="0 0 34 34" fill="none" xmlns="http://www.w3.org/2000/svg">
<path d="M1 17C1 8.16344 8.16344 1 17 1V1C25.8366 1 33 8.16344 33 17V17C33 25.8366 25.8366 33 17 33V33C8.16344 33 1 25.8366 1 17V17Z" stroke="#048AF5" stroke-width="2"/>
<path fill-rule="evenodd" clip-rule="evenodd" d="M20.1292 23.7658C21.0962 24.1889 21.4588 23.3025 21.4588 23.3025L24.0173 10.4496C23.9972 9.58334 22.8287 10.1071 22.8287 10.1071L8.50524 15.7277C8.50524 15.7277 7.82029 15.9695 7.88073 16.3925C7.94117 16.8156 8.4851 17.017 8.4851 17.017L12.0911 18.2258C12.0911 18.2258 13.179 21.7915 13.4006 22.4765C13.6021 23.1413 13.7834 23.1614 13.7834 23.1614C13.9848 23.242 14.1661 23.101 14.1661 23.101L16.503 20.9857L20.1292 23.7658ZM20.5046 12.9893C20.5046 12.9893 20.9908 12.704 20.9713 12.9893C20.9713 12.9893 21.0491 13.0274 20.7963 13.2937C20.5629 13.5219 15.0592 18.3534 14.3202 19.0001C14.2619 19.0382 14.223 19.0952 14.223 19.1713L14.0091 20.9593C13.9702 21.1496 13.7174 21.1686 13.659 20.9974L12.745 18.0681C12.7061 17.9539 12.745 17.8208 12.8617 17.7447L20.5046 12.9893Z" fill="#048AF5"/>
</svg>
