<svg width="32" height="32" viewBox="0 0 32 32" fill="none" xmlns="http://www.w3.org/2000/svg">
<path d="M23.004 12.9069C23.004 13.0588 23.004 13.2107 23.004 13.3409C23.004 17.8321 19.521 23.0176 13.1721 23.0176C11.2102 23.0176 9.4025 22.4535 7.85938 21.4989C8.12391 21.5206 8.41049 21.5423 8.67503 21.5423C10.2843 21.5423 11.7833 20.9998 12.9737 20.0886C11.4527 20.0669 10.1741 19.0688 9.75521 17.7236C9.97566 17.767 10.1741 17.7887 10.4166 17.7887C10.7252 17.7887 11.0338 17.7453 11.3204 17.6585C9.73317 17.3548 8.54276 15.9879 8.54276 14.3389C8.54276 14.3172 8.54276 14.3172 8.54276 14.2955C9.0057 14.5559 9.53477 14.7078 10.1079 14.7295C9.18205 14.122 8.5648 13.0805 8.5648 11.8872C8.5648 11.258 8.74116 10.6722 9.02774 10.1732C10.7252 12.2343 13.2824 13.5795 16.1482 13.7314C16.082 13.4928 16.06 13.2107 16.06 12.9503C16.06 11.0627 17.6031 9.54395 19.521 9.54395C20.513 9.54395 21.4168 9.95618 22.0341 10.6071C22.8277 10.4552 23.5552 10.1732 24.2385 9.78261C23.974 10.5854 23.4229 11.2363 22.7175 11.6702C23.4229 11.5834 24.0842 11.4099 24.7015 11.1278C24.2606 11.8221 23.6874 12.4296 23.004 12.9069Z" fill="#048AF5"/>
<path d="M1 16C1 7.71573 7.71573 1 16 1C24.2843 1 31 7.71573 31 16C31 24.2843 24.2843 31 16 31C7.71573 31 1 24.2843 1 16Z" stroke="#048AF5" stroke-width="2"/>
</svg>
