<svg width="49" height="39" viewBox="0 0 49 39" fill="none" xmlns="http://www.w3.org/2000/svg">
<path d="M47 2.01961C45.0412 3.33716 42.8725 4.34488 40.5773 5.00395C39.3454 3.65322 37.7082 2.69585 35.8871 2.26134C34.066 1.82682 32.149 1.93612 30.3952 2.57445C28.6414 3.21279 27.1354 4.34935 26.0811 5.83043C25.0268 7.31151 24.4748 9.06565 24.5 10.8556V12.8061C20.9054 12.895 17.3435 12.1348 14.1316 10.5931C10.9197 9.05149 8.15747 6.77629 6.09091 3.97016C6.09091 3.97016 -2.09091 21.5251 16.3182 29.3273C12.1056 32.0541 7.08737 33.4213 2 33.2284C20.4091 42.9811 42.9091 33.2284 42.9091 10.7971C42.9072 10.2538 42.8524 9.71178 42.7455 9.17812C44.8331 7.21488 46.3062 4.73617 47 2.01961Z" stroke="white" stroke-width="3.5" stroke-linecap="round" stroke-linejoin="round"/>
</svg>
