<svg width="34" height="34" viewBox="0 0 34 34" fill="none" xmlns="http://www.w3.org/2000/svg">
<path d="M1 17C1 8.16344 8.16344 1 17 1V1C25.8366 1 33 8.16344 33 17V17C33 25.8366 25.8366 33 17 33V33C8.16344 33 1 25.8366 1 17V17Z" stroke="#048AF5" stroke-width="2"/>
<path d="M24.1657 9.80782C22.4503 8.04205 20.0792 7.0835 17.6576 7.0835C12.5116 7.0835 8.37467 11.2709 8.42512 16.3664C8.42512 17.9808 8.87917 19.5448 9.63593 20.9574L8.32422 25.7502L13.2179 24.4889C14.5801 25.2457 16.0936 25.5988 17.6071 25.5988C22.7026 25.5988 26.8395 21.4114 26.8395 16.3159C26.8395 13.8439 25.881 11.5231 24.1657 9.80782ZM17.6576 24.0348C16.2954 24.0348 14.9332 23.6817 13.7729 22.9754L13.4702 22.824L10.544 23.5808L11.3008 20.7051L11.099 20.4024C8.87917 16.8204 9.93863 12.0781 13.5711 9.85827C17.2035 7.63845 21.8954 8.69791 24.1152 12.3303C26.335 15.9628 25.2756 20.6547 21.6431 22.8745C20.4828 23.6312 19.0702 24.0348 17.6576 24.0348ZM22.0972 18.4348L21.5422 18.1826C21.5422 18.1826 20.735 17.8294 20.2305 17.5772C20.1801 17.5772 20.1296 17.5267 20.0792 17.5267C19.9278 17.5267 19.8269 17.5772 19.726 17.6276C19.726 17.6276 19.6756 17.6781 18.9693 18.4853C18.9188 18.5862 18.8179 18.6366 18.717 18.6366H18.6666C18.6161 18.6366 18.5152 18.5862 18.4648 18.5357L18.2125 18.4348C17.6576 18.1826 17.153 17.8799 16.7494 17.4763C16.6485 17.3754 16.4972 17.2745 16.3963 17.1736C16.0431 16.8204 15.69 16.4168 15.4377 15.9628L15.3873 15.8619C15.3368 15.8114 15.3368 15.761 15.2864 15.6601C15.2864 15.5592 15.2864 15.4583 15.3368 15.4078C15.3368 15.4078 15.5386 15.1556 15.69 15.0042C15.7909 14.9033 15.8413 14.752 15.9422 14.6511C16.0431 14.4997 16.0936 14.2979 16.0431 14.1466C15.9927 13.8943 15.3873 12.5321 15.2359 12.2294C15.135 12.0781 15.0341 12.0276 14.8828 11.9772H14.7314C14.6305 11.9772 14.4792 11.9772 14.3278 11.9772C14.2269 11.9772 14.126 12.0276 14.0251 12.0276L13.9747 12.0781C13.8738 12.1285 13.7729 12.2294 13.672 12.2799C13.5711 12.3808 13.5206 12.4817 13.4197 12.5826C13.0666 13.0366 12.8648 13.5916 12.8648 14.1466C12.8648 14.5502 12.9657 14.9538 13.117 15.3069L13.1675 15.4583C13.6215 16.4168 14.2269 17.2745 15.0341 18.0312L15.2359 18.233C15.3873 18.3844 15.5386 18.4853 15.6395 18.6366C16.699 19.5448 17.9098 20.2006 19.272 20.5538C19.4233 20.6042 19.6251 20.6042 19.7765 20.6547C19.9278 20.6547 20.1296 20.6547 20.281 20.6547C20.5332 20.6547 20.8359 20.5538 21.0377 20.4529C21.1891 20.352 21.29 20.352 21.3909 20.2511L21.4918 20.1502C21.5927 20.0493 21.6936 19.9988 21.7945 19.8979C21.8954 19.797 21.9963 19.6961 22.0467 19.5952C22.1476 19.3934 22.1981 19.1412 22.2485 18.8889C22.2485 18.788 22.2485 18.6366 22.2485 18.5357C22.2485 18.5357 22.1981 18.4853 22.0972 18.4348Z" fill="#048AF5"/>
</svg>
