<?xml version="1.0" encoding="iso-8859-1"?>
<!-- Generator: Adobe Illustrator 19.2.1, SVG Export Plug-In . SVG Version: 6.00 Build 0)  -->
<svg version="1.1" id="Layer_1" xmlns="http://www.w3.org/2000/svg" xmlns:xlink="http://www.w3.org/1999/xlink" x="0px" y="0px"
	 viewBox="0 0 200 100" style="enable-background:new 0 0 200 100;" xml:space="preserve">
<g>
	<g>
		<g>
			<path style="fill:#BCBEC0;" d="M12.279,47.751h16.992v3.366H15.678v10.1h13.593v3.366H12.279V47.751z"/>
			<path style="fill:#BCBEC0;" d="M35.388,47.751h16.991v16.831H35.388V47.751z M38.785,61.217h10.196v-10.1H38.785V61.217z"/>
			<path style="fill:#BCBEC0;" d="M65.171,51.117h-3.398v13.465h-3.399V47.751h16.991v16.831h-3.397V51.117H68.57v13.465h-3.399
				V51.117z"/>
			<path style="fill:#BCBEC0;" d="M81.365,47.751h16.991v10.098H84.761v6.733h-3.397V47.751z M84.761,54.485h10.195v-3.368H84.761
				V54.485z"/>
			<path style="fill:#BCBEC0;" d="M104.402,47.751h3.399v13.465h10.195V47.751h3.397v16.831h-16.991V47.751z"/>
			<path style="fill:#BCBEC0;" d="M127.205,47.751h16.99v3.366H137.4v13.465H134V51.117h-6.795V47.751z"/>
			<path style="fill:#BCBEC0;" d="M150.191,47.751h16.991v3.366H153.59v3.368h6.797v3.364h-6.797v3.368h13.593v3.366h-16.991V47.751
				z"/>
			<path style="fill:#BCBEC0;" d="M183.562,57.849h-6.797v6.733h-3.397V47.751h16.991v10.098h-3.399v3.368h3.399v3.366h-3.399
				v-3.366h-3.398V57.849z M176.765,54.485h10.195v-3.368h-10.195V54.485z"/>
		</g>
		<g>
			<path style="fill:#57C1E8;" d="M35.838,82.036H25.643v6.735h-3.397V71.939h16.99v16.832h-3.399V82.036z M25.643,78.672h10.195
				v-3.367H25.643V78.672z"/>
			<path style="fill:#57C1E8;" d="M58.974,75.304H48.779v13.466H45.38V71.939h16.991v16.832h-3.397V75.304z"/>
			<path style="fill:#57C1E8;" d="M68.515,71.939h16.991v3.366H71.914v3.367h13.591v10.099H68.515v-3.366h13.594v-3.369H68.515
				V71.939z"/>
			<path style="fill:#57C1E8;" d="M91.764,71.939h3.397v13.466h3.399V71.939h3.399v13.466h3.396V71.939h3.4v16.832H91.764V71.939z"
				/>
			<path style="fill:#57C1E8;" d="M114.804,71.939h16.991v3.366h-13.592v3.367h6.797v3.364h-6.797v3.369h13.592v3.366h-16.991
				V71.939z"/>
			<path style="fill:#57C1E8;" d="M148.106,82.036h-6.795v6.735h-3.4V71.939h16.991v10.097h-3.397v3.369h3.397v3.366h-3.397v-3.366
				h-3.4V82.036z M141.311,78.672h10.195v-3.367h-10.195V78.672z"/>
			<path style="fill:#57C1E8;" d="M161.046,71.939h16.997v3.366h-13.6v3.367h13.595v10.099h-16.991v-3.366h13.591v-3.369h-13.591
				V71.939z"/>
		</g>
	</g>
	<g>
		<rect x="102.455" y="28.17" style="fill:#57C1E8;" width="3.825" height="3.792"/>
		<rect x="105.326" y="32.979" style="fill:#B6BD00;" width="3.824" height="3.792"/>
		<rect x="114.183" y="35.221" style="fill:#B6BD00;" width="3.825" height="3.792"/>
		<rect x="96.584" y="11.632" style="fill:#FF5000;" width="3.825" height="3.793"/>
		<rect x="110" y="30.966" style="fill:#FF5000;" width="3.825" height="3.792"/>
		<rect x="88.454" y="6.194" style="fill:#FF5000;" width="3.826" height="3.793"/>
		<rect x="107.559" y="26.132" style="fill:#B6BD00;" width="3.825" height="3.793"/>
		<rect x="102.679" y="22.912" style="fill:#FF5000;" width="3.827" height="3.786"/>
		<rect x="83.98" y="1.968" style="fill:#FF5000;" width="3.827" height="3.787"/>
		<rect x="97.599" y="25.128" style="fill:#57C1E8;" width="3.826" height="3.788"/>
		<rect x="98.27" y="18.856" style="fill:#57C1E8;" width="3.825" height="3.789"/>
		<rect x="102.884" y="16.669" style="fill:#57C1E8;" width="3.825" height="3.789"/>
		<rect x="97.889" y="5.729" style="fill:#57C1E8;" width="3.827" height="3.789"/>
		<rect x="103.116" y="2.903" style="fill:#57C1E8;" width="3.829" height="3.789"/>
		<rect x="106.677" y="8.162" style="fill:#B6BD00;" width="3.825" height="3.791"/>
		<rect x="97.578" y="30.866" style="fill:#B6BD00;" width="3.826" height="3.79"/>
		<rect x="93.737" y="16.266" style="fill:#FF5000;" width="3.828" height="3.788"/>
		<rect x="93.046" y="22.185" style="fill:#B6BD00;" width="3.829" height="3.789"/>
		<rect x="101.72" y="10.654" style="fill:#B6BD00;" width="3.829" height="3.79"/>
		<rect x="109.293" y="1.255" style="fill:#57C1E8;" width="3.83" height="3.79"/>
		<rect x="87.8" y="24.362" style="fill:#B6BD00;" width="3.822" height="3.791"/>
		<rect x="91.264" y="11.025" style="fill:#B6BD00;" width="3.822" height="3.791"/>
		<rect x="88.852" y="18.166" style="fill:#57C1E8;" width="3.826" height="3.791"/>
		<rect x="84.587" y="14.452" style="fill:#FF5000;" width="3.827" height="3.791"/>
	</g>
	<g>
		<path style="fill:#BCBEC0;" d="M31.936,94.561c0,0.031-0.004,0.069-0.013,0.114c-0.009,0.045-0.024,0.111-0.047,0.196
			l-1.019,3.421c-0.014,0.048-0.033,0.087-0.056,0.116c-0.023,0.03-0.058,0.053-0.105,0.07c-0.047,0.017-0.114,0.029-0.201,0.034
			c-0.087,0.005-0.201,0.008-0.34,0.008c-0.14,0-0.254-0.004-0.342-0.011c-0.088-0.007-0.158-0.019-0.207-0.036
			c-0.05-0.017-0.086-0.04-0.109-0.069c-0.023-0.03-0.04-0.067-0.051-0.113l-0.642-2.298l-0.009-0.038l-0.009,0.038l-0.591,2.298
			c-0.011,0.048-0.028,0.087-0.049,0.116c-0.021,0.03-0.058,0.053-0.109,0.07c-0.051,0.017-0.121,0.029-0.21,0.034
			c-0.088,0.005-0.203,0.008-0.342,0.008c-0.143,0-0.258-0.004-0.344-0.011c-0.087-0.007-0.156-0.019-0.205-0.036
			c-0.05-0.017-0.086-0.04-0.109-0.069c-0.023-0.03-0.04-0.067-0.051-0.113l-1.01-3.421c-0.026-0.082-0.042-0.146-0.049-0.193
			c-0.007-0.046-0.011-0.086-0.011-0.116c0-0.028,0.008-0.053,0.024-0.074c0.016-0.022,0.044-0.039,0.086-0.051
			c0.041-0.013,0.097-0.022,0.167-0.028c0.07-0.005,0.158-0.009,0.263-0.009c0.114,0,0.207,0.003,0.278,0.009
			c0.071,0.005,0.127,0.015,0.167,0.029c0.04,0.015,0.068,0.034,0.084,0.058c0.016,0.024,0.028,0.053,0.036,0.087l0.758,2.777
			l0.009,0.051l0.009-0.051l0.71-2.777c0.009-0.034,0.022-0.063,0.04-0.087c0.019-0.024,0.047-0.043,0.084-0.058
			c0.037-0.014,0.089-0.024,0.156-0.029c0.067-0.005,0.154-0.009,0.259-0.009c0.106,0,0.191,0.004,0.257,0.011
			c0.066,0.007,0.118,0.017,0.156,0.029c0.038,0.013,0.065,0.03,0.081,0.051c0.016,0.022,0.028,0.046,0.037,0.075l0.762,2.798
			l0.013,0.046l0.009-0.051l0.728-2.777c0.006-0.034,0.017-0.063,0.034-0.087s0.046-0.043,0.086-0.058
			c0.04-0.014,0.094-0.024,0.163-0.029c0.069-0.005,0.156-0.009,0.261-0.009s0.192,0.003,0.259,0.009
			c0.067,0.005,0.12,0.015,0.158,0.028c0.039,0.012,0.065,0.029,0.079,0.051C31.929,94.508,31.936,94.532,31.936,94.561z"/>
		<path style="fill:#BCBEC0;" d="M40.791,96.35c0,0.13-0.029,0.226-0.088,0.288c-0.058,0.062-0.139,0.093-0.242,0.093h-2.324
			c0,0.161,0.019,0.308,0.058,0.439c0.039,0.132,0.1,0.244,0.184,0.335c0.084,0.092,0.192,0.162,0.325,0.21
			c0.132,0.048,0.291,0.072,0.477,0.072c0.188,0,0.354-0.014,0.496-0.041c0.143-0.027,0.266-0.056,0.37-0.089
			c0.104-0.032,0.19-0.062,0.259-0.089c0.068-0.027,0.124-0.04,0.167-0.04c0.026,0,0.047,0.005,0.064,0.015
			c0.017,0.01,0.032,0.028,0.043,0.053c0.011,0.025,0.019,0.062,0.024,0.108c0.004,0.047,0.006,0.106,0.006,0.176
			c0,0.062-0.002,0.116-0.004,0.16c-0.003,0.044-0.007,0.081-0.013,0.112c-0.006,0.032-0.014,0.058-0.026,0.079
			c-0.011,0.022-0.026,0.042-0.045,0.062c-0.018,0.02-0.069,0.046-0.152,0.08c-0.083,0.034-0.188,0.068-0.317,0.1
			c-0.128,0.032-0.275,0.061-0.441,0.085c-0.165,0.024-0.342,0.036-0.531,0.036c-0.34,0-0.637-0.042-0.892-0.126
			c-0.256-0.085-0.469-0.214-0.64-0.386c-0.171-0.173-0.299-0.39-0.383-0.653c-0.084-0.263-0.126-0.571-0.126-0.924
			c0-0.336,0.044-0.64,0.133-0.91c0.088-0.27,0.217-0.499,0.385-0.687c0.168-0.188,0.373-0.331,0.614-0.43
			c0.241-0.099,0.513-0.148,0.815-0.148c0.319,0,0.593,0.046,0.82,0.14c0.226,0.093,0.413,0.223,0.558,0.388
			c0.146,0.166,0.253,0.362,0.321,0.587c0.068,0.226,0.103,0.472,0.103,0.738V96.35z M39.746,96.045
			c0.009-0.3-0.052-0.535-0.182-0.706c-0.13-0.171-0.33-0.257-0.601-0.257c-0.137,0-0.256,0.026-0.358,0.077
			c-0.101,0.051-0.185,0.119-0.252,0.205c-0.067,0.086-0.119,0.188-0.154,0.305c-0.036,0.117-0.056,0.243-0.062,0.375H39.746z"/>
		<path style="fill:#BCBEC0;" d="M56.62,98.355c0,0.028-0.008,0.053-0.024,0.075c-0.016,0.021-0.044,0.038-0.086,0.051
			c-0.041,0.012-0.098,0.022-0.169,0.029c-0.071,0.007-0.164,0.011-0.278,0.011c-0.117,0-0.212-0.003-0.284-0.008
			c-0.073-0.005-0.133-0.015-0.18-0.028c-0.047-0.012-0.084-0.03-0.109-0.052c-0.026-0.023-0.049-0.052-0.069-0.089l-1.271-1.993
			v2.001c0,0.028-0.009,0.053-0.026,0.074c-0.017,0.022-0.046,0.039-0.088,0.053c-0.041,0.014-0.096,0.025-0.165,0.032
			c-0.068,0.007-0.156,0.011-0.261,0.011c-0.105,0-0.193-0.004-0.261-0.011c-0.068-0.007-0.123-0.018-0.165-0.032
			c-0.042-0.014-0.071-0.032-0.088-0.053c-0.017-0.021-0.026-0.045-0.026-0.074v-5.576c0-0.028,0.009-0.053,0.026-0.076
			c0.017-0.023,0.046-0.042,0.088-0.058c0.041-0.015,0.096-0.027,0.165-0.036c0.069-0.008,0.156-0.012,0.261-0.012
			c0.105,0,0.193,0.005,0.261,0.012c0.068,0.009,0.123,0.021,0.165,0.036c0.042,0.015,0.071,0.035,0.088,0.058
			c0.017,0.022,0.026,0.048,0.026,0.076v3.32l1.13-1.506c0.023-0.034,0.049-0.063,0.077-0.089c0.028-0.025,0.066-0.045,0.114-0.059
			c0.047-0.014,0.106-0.025,0.175-0.032c0.07-0.007,0.159-0.011,0.268-0.011c0.105,0,0.195,0.004,0.268,0.011
			c0.072,0.007,0.131,0.018,0.175,0.032c0.044,0.014,0.075,0.032,0.092,0.053c0.017,0.021,0.026,0.047,0.026,0.078
			c0,0.043-0.011,0.088-0.032,0.136c-0.021,0.049-0.053,0.099-0.096,0.153l-1.117,1.255l1.293,1.98
			c0.034,0.056,0.059,0.106,0.075,0.147C56.613,98.284,56.62,98.321,56.62,98.355z"/>
		<path style="fill:#BCBEC0;" d="M65.633,98.351c0,0.028-0.009,0.053-0.026,0.074c-0.017,0.022-0.046,0.039-0.086,0.053
			c-0.04,0.014-0.095,0.025-0.165,0.032c-0.07,0.007-0.156,0.011-0.258,0.011c-0.106,0-0.194-0.004-0.264-0.011
			c-0.07-0.007-0.124-0.018-0.164-0.032c-0.04-0.014-0.069-0.032-0.086-0.053c-0.017-0.021-0.026-0.045-0.026-0.074v-2.158
			c0-0.184-0.013-0.328-0.04-0.433c-0.027-0.104-0.066-0.194-0.118-0.269c-0.051-0.075-0.118-0.133-0.199-0.173
			c-0.081-0.041-0.176-0.062-0.284-0.062c-0.137,0-0.275,0.049-0.416,0.148c-0.14,0.099-0.286,0.244-0.437,0.433v2.514
			c0,0.028-0.009,0.053-0.026,0.074c-0.017,0.022-0.047,0.039-0.088,0.053c-0.041,0.014-0.096,0.025-0.164,0.032
			c-0.068,0.007-0.156,0.011-0.261,0.011c-0.106,0-0.193-0.004-0.262-0.011c-0.068-0.007-0.123-0.018-0.164-0.032
			c-0.041-0.014-0.071-0.032-0.088-0.053c-0.017-0.021-0.026-0.045-0.026-0.074v-3.782c0-0.029,0.007-0.053,0.021-0.074
			c0.015-0.022,0.04-0.039,0.078-0.053c0.037-0.014,0.085-0.025,0.143-0.032c0.058-0.007,0.132-0.011,0.22-0.011
			c0.091,0,0.167,0.004,0.226,0.011c0.061,0.007,0.107,0.018,0.139,0.032c0.033,0.014,0.057,0.032,0.071,0.053
			c0.014,0.021,0.022,0.045,0.022,0.074v0.437c0.211-0.227,0.426-0.396,0.644-0.509c0.219-0.113,0.446-0.17,0.682-0.17
			c0.26,0,0.479,0.042,0.658,0.126c0.178,0.085,0.322,0.2,0.432,0.346c0.11,0.146,0.189,0.315,0.238,0.511
			c0.048,0.194,0.072,0.429,0.072,0.703V98.351z"/>
		<path style="fill:#BCBEC0;" d="M75.257,96.422c0,0.322-0.043,0.617-0.128,0.882c-0.086,0.266-0.216,0.495-0.39,0.688
			c-0.174,0.192-0.392,0.34-0.654,0.445c-0.262,0.105-0.569,0.157-0.921,0.157c-0.339,0-0.634-0.046-0.886-0.14
			c-0.251-0.093-0.459-0.229-0.625-0.407c-0.166-0.178-0.288-0.397-0.368-0.658c-0.08-0.26-0.12-0.557-0.12-0.89
			c0-0.322,0.044-0.617,0.131-0.884c0.087-0.268,0.217-0.496,0.391-0.687c0.174-0.191,0.391-0.338,0.653-0.443
			c0.261-0.105,0.567-0.157,0.918-0.157c0.342,0,0.639,0.045,0.89,0.137c0.251,0.092,0.458,0.227,0.622,0.406
			c0.164,0.177,0.286,0.397,0.366,0.657C75.218,95.787,75.257,96.086,75.257,96.422z M74.149,96.465
			c0-0.187-0.016-0.358-0.045-0.516c-0.03-0.156-0.081-0.293-0.153-0.409c-0.071-0.116-0.166-0.206-0.284-0.271
			c-0.118-0.065-0.268-0.097-0.447-0.097c-0.16,0-0.3,0.029-0.419,0.087c-0.12,0.058-0.219,0.143-0.295,0.254
			c-0.078,0.112-0.135,0.246-0.174,0.402c-0.039,0.157-0.058,0.336-0.058,0.536c0,0.187,0.016,0.358,0.047,0.515
			c0.031,0.157,0.082,0.294,0.152,0.409c0.07,0.116,0.165,0.206,0.285,0.269c0.12,0.064,0.268,0.096,0.445,0.096
			c0.163,0,0.303-0.029,0.423-0.087c0.12-0.058,0.219-0.142,0.296-0.252c0.077-0.11,0.134-0.244,0.171-0.401
			C74.131,96.844,74.149,96.665,74.149,96.465z"/>
		<path style="fill:#BCBEC0;" d="M86.641,94.561c0,0.031-0.004,0.069-0.013,0.114c-0.009,0.045-0.024,0.111-0.047,0.196
			l-1.019,3.421c-0.014,0.048-0.033,0.087-0.055,0.116c-0.023,0.03-0.058,0.053-0.105,0.07c-0.047,0.017-0.114,0.029-0.201,0.034
			c-0.087,0.005-0.201,0.008-0.341,0.008c-0.139,0-0.254-0.004-0.342-0.011c-0.088-0.007-0.157-0.019-0.207-0.036
			c-0.05-0.017-0.086-0.04-0.109-0.069c-0.023-0.03-0.04-0.067-0.051-0.113l-0.643-2.298L83.5,95.956l-0.009,0.038l-0.59,2.298
			c-0.012,0.048-0.028,0.087-0.05,0.116c-0.021,0.03-0.058,0.053-0.109,0.07c-0.051,0.017-0.121,0.029-0.21,0.034
			c-0.088,0.005-0.202,0.008-0.342,0.008c-0.142,0-0.257-0.004-0.344-0.011c-0.087-0.007-0.156-0.019-0.205-0.036
			c-0.05-0.017-0.086-0.04-0.109-0.069c-0.023-0.03-0.04-0.067-0.051-0.113l-1.01-3.421c-0.026-0.082-0.043-0.146-0.05-0.193
			c-0.007-0.046-0.011-0.086-0.011-0.116c0-0.028,0.009-0.053,0.024-0.074c0.016-0.022,0.044-0.039,0.086-0.051
			c0.041-0.013,0.096-0.022,0.167-0.028c0.07-0.005,0.158-0.009,0.264-0.009c0.114,0,0.206,0.003,0.278,0.009
			c0.072,0.005,0.127,0.015,0.167,0.029c0.04,0.015,0.068,0.034,0.083,0.058c0.016,0.024,0.027,0.053,0.037,0.087l0.757,2.777
			l0.009,0.051l0.009-0.051l0.71-2.777c0.009-0.034,0.022-0.063,0.04-0.087c0.019-0.024,0.047-0.043,0.084-0.058
			c0.037-0.014,0.089-0.024,0.156-0.029c0.067-0.005,0.153-0.009,0.259-0.009c0.106,0,0.191,0.004,0.257,0.011
			c0.065,0.007,0.117,0.017,0.156,0.029c0.038,0.013,0.065,0.03,0.081,0.051c0.016,0.022,0.028,0.046,0.037,0.075l0.762,2.798
			l0.012,0.046l0.009-0.051l0.727-2.777c0.006-0.034,0.017-0.063,0.034-0.087c0.017-0.024,0.046-0.043,0.086-0.058
			c0.04-0.014,0.095-0.024,0.163-0.029c0.068-0.005,0.155-0.009,0.261-0.009c0.106,0,0.192,0.003,0.259,0.009
			c0.067,0.005,0.12,0.015,0.158,0.028c0.039,0.012,0.065,0.029,0.079,0.051C86.634,94.508,86.641,94.532,86.641,94.561z"/>
		<path style="fill:#BCBEC0;" d="M101.615,97.749c0,0.073-0.002,0.135-0.007,0.184c-0.004,0.049-0.01,0.092-0.017,0.126
			c-0.007,0.034-0.016,0.061-0.026,0.082c-0.01,0.021-0.032,0.048-0.066,0.08c-0.034,0.032-0.093,0.072-0.175,0.119
			c-0.083,0.047-0.177,0.089-0.283,0.126c-0.105,0.036-0.22,0.066-0.344,0.089c-0.124,0.022-0.252,0.034-0.383,0.034
			c-0.294,0-0.555-0.045-0.781-0.136c-0.227-0.09-0.417-0.224-0.571-0.401c-0.154-0.177-0.271-0.392-0.349-0.647
			c-0.079-0.254-0.118-0.545-0.118-0.873c0-0.379,0.047-0.706,0.143-0.982c0.096-0.275,0.229-0.503,0.4-0.685
			c0.171-0.181,0.374-0.315,0.608-0.402c0.233-0.088,0.49-0.132,0.77-0.132c0.114,0,0.226,0.01,0.335,0.03
			c0.11,0.019,0.212,0.046,0.308,0.08c0.096,0.034,0.181,0.072,0.257,0.114c0.076,0.043,0.129,0.079,0.161,0.111
			c0.031,0.031,0.053,0.057,0.066,0.078c0.012,0.022,0.023,0.049,0.03,0.082c0.007,0.034,0.013,0.076,0.017,0.126
			c0.005,0.049,0.007,0.109,0.007,0.18c0,0.164-0.015,0.28-0.044,0.346c-0.028,0.066-0.065,0.099-0.111,0.099
			c-0.049,0-0.1-0.02-0.154-0.059c-0.054-0.039-0.119-0.083-0.193-0.132c-0.074-0.048-0.163-0.092-0.265-0.131
			c-0.103-0.039-0.226-0.059-0.368-0.059c-0.279,0-0.493,0.106-0.642,0.32c-0.149,0.214-0.223,0.527-0.223,0.939
			c0,0.204,0.019,0.383,0.055,0.539c0.037,0.156,0.093,0.285,0.165,0.39c0.073,0.105,0.164,0.183,0.274,0.235
			c0.11,0.052,0.238,0.079,0.383,0.079c0.149,0,0.276-0.022,0.384-0.066c0.107-0.044,0.2-0.093,0.28-0.146
			c0.08-0.054,0.147-0.103,0.202-0.147c0.054-0.044,0.1-0.066,0.137-0.066c0.025,0,0.047,0.007,0.064,0.022
			c0.017,0.014,0.03,0.04,0.04,0.078c0.01,0.039,0.018,0.087,0.023,0.147C101.612,97.58,101.615,97.656,101.615,97.749z"/>
		<path style="fill:#BCBEC0;" d="M110.918,96.422c0,0.322-0.043,0.617-0.128,0.882c-0.086,0.266-0.216,0.495-0.39,0.688
			c-0.174,0.192-0.392,0.34-0.654,0.445c-0.262,0.105-0.569,0.157-0.921,0.157c-0.339,0-0.634-0.046-0.886-0.14
			c-0.251-0.093-0.459-0.229-0.625-0.407c-0.166-0.178-0.288-0.397-0.368-0.658c-0.08-0.26-0.12-0.557-0.12-0.89
			c0-0.322,0.044-0.617,0.131-0.884c0.087-0.268,0.217-0.496,0.391-0.687c0.174-0.191,0.391-0.338,0.653-0.443
			c0.261-0.105,0.566-0.157,0.918-0.157c0.342,0,0.639,0.045,0.89,0.137c0.251,0.092,0.458,0.227,0.623,0.406
			c0.164,0.177,0.286,0.397,0.366,0.657C110.878,95.787,110.918,96.086,110.918,96.422z M109.81,96.465
			c0-0.187-0.016-0.358-0.045-0.516c-0.03-0.156-0.081-0.293-0.153-0.409c-0.071-0.116-0.166-0.206-0.284-0.271
			c-0.118-0.065-0.268-0.097-0.447-0.097c-0.16,0-0.3,0.029-0.419,0.087c-0.12,0.058-0.219,0.143-0.295,0.254
			c-0.078,0.112-0.135,0.246-0.173,0.402c-0.039,0.157-0.058,0.336-0.058,0.536c0,0.187,0.016,0.358,0.047,0.515
			c0.031,0.157,0.082,0.294,0.152,0.409c0.07,0.116,0.165,0.206,0.285,0.269c0.12,0.064,0.269,0.096,0.445,0.096
			c0.163,0,0.304-0.029,0.423-0.087c0.12-0.058,0.219-0.142,0.296-0.252c0.077-0.11,0.134-0.244,0.171-0.401
			C109.791,96.844,109.81,96.665,109.81,96.465z"/>
		<path style="fill:#BCBEC0;" d="M122.551,98.351c0,0.028-0.009,0.053-0.026,0.074c-0.017,0.022-0.045,0.039-0.086,0.053
			c-0.04,0.014-0.093,0.025-0.162,0.032c-0.068,0.007-0.156,0.011-0.261,0.011c-0.108,0-0.197-0.004-0.265-0.011
			c-0.068-0.007-0.124-0.018-0.165-0.032c-0.041-0.014-0.07-0.032-0.086-0.053c-0.016-0.021-0.023-0.045-0.023-0.074v-2.243
			c0-0.128-0.012-0.244-0.037-0.348c-0.024-0.104-0.062-0.194-0.111-0.269c-0.05-0.075-0.113-0.133-0.188-0.173
			c-0.075-0.041-0.166-0.062-0.272-0.062c-0.128,0-0.258,0.049-0.389,0.148c-0.132,0.099-0.274,0.244-0.428,0.433v2.514
			c0,0.028-0.009,0.053-0.026,0.074c-0.017,0.022-0.046,0.039-0.087,0.053c-0.041,0.014-0.097,0.025-0.165,0.032
			c-0.069,0.007-0.154,0.011-0.257,0.011c-0.106,0-0.193-0.004-0.261-0.011c-0.069-0.007-0.123-0.018-0.164-0.032
			c-0.041-0.014-0.071-0.032-0.088-0.053c-0.017-0.021-0.026-0.045-0.026-0.074v-2.243c0-0.128-0.012-0.244-0.037-0.348
			c-0.024-0.104-0.061-0.194-0.109-0.269c-0.048-0.075-0.111-0.133-0.188-0.173c-0.077-0.041-0.167-0.062-0.269-0.062
			c-0.131,0-0.263,0.049-0.394,0.148c-0.132,0.099-0.273,0.244-0.424,0.433v2.514c0,0.028-0.009,0.053-0.026,0.074
			c-0.017,0.022-0.047,0.039-0.088,0.053c-0.041,0.014-0.096,0.025-0.164,0.032c-0.068,0.007-0.156,0.011-0.261,0.011
			c-0.106,0-0.193-0.004-0.261-0.011c-0.069-0.007-0.123-0.018-0.164-0.032c-0.041-0.014-0.071-0.032-0.088-0.053
			c-0.017-0.021-0.026-0.045-0.026-0.074v-3.782c0-0.029,0.007-0.053,0.021-0.074c0.015-0.022,0.04-0.039,0.078-0.053
			c0.037-0.014,0.085-0.025,0.143-0.032c0.058-0.007,0.132-0.011,0.22-0.011c0.091,0,0.167,0.004,0.226,0.011
			c0.061,0.007,0.107,0.018,0.139,0.032c0.033,0.014,0.057,0.032,0.071,0.053c0.014,0.021,0.022,0.045,0.022,0.074v0.437
			c0.211-0.227,0.421-0.396,0.631-0.509c0.209-0.113,0.429-0.17,0.657-0.17c0.157,0,0.298,0.016,0.424,0.049
			c0.125,0.032,0.237,0.079,0.335,0.14c0.099,0.061,0.184,0.134,0.255,0.219c0.072,0.085,0.131,0.179,0.18,0.284
			c0.114-0.122,0.226-0.226,0.335-0.314c0.11-0.088,0.219-0.159,0.325-0.214c0.107-0.055,0.214-0.096,0.321-0.123
			c0.107-0.027,0.216-0.04,0.327-0.04c0.254,0,0.468,0.042,0.643,0.126c0.174,0.085,0.314,0.2,0.421,0.346
			c0.107,0.146,0.184,0.315,0.23,0.511c0.045,0.194,0.068,0.401,0.068,0.618V98.351z"/>
		<path style="fill:#BCBEC0;" d="M132.157,96.405c0,0.337-0.037,0.64-0.109,0.91c-0.073,0.27-0.179,0.5-0.319,0.689
			c-0.14,0.19-0.314,0.335-0.522,0.436c-0.209,0.102-0.447,0.153-0.715,0.153c-0.111,0-0.213-0.01-0.306-0.032
			c-0.093-0.021-0.182-0.053-0.269-0.097c-0.087-0.044-0.173-0.099-0.259-0.163c-0.086-0.065-0.174-0.141-0.265-0.229v1.781
			c0,0.028-0.009,0.054-0.026,0.076c-0.017,0.022-0.047,0.042-0.088,0.057c-0.041,0.015-0.096,0.028-0.164,0.036
			c-0.068,0.008-0.156,0.012-0.261,0.012c-0.106,0-0.193-0.004-0.262-0.012c-0.068-0.008-0.123-0.021-0.164-0.036
			c-0.041-0.015-0.071-0.035-0.088-0.057c-0.017-0.022-0.026-0.048-0.026-0.076v-5.283c0-0.029,0.007-0.053,0.021-0.074
			c0.015-0.022,0.04-0.039,0.075-0.053c0.036-0.014,0.082-0.025,0.141-0.032c0.058-0.007,0.132-0.011,0.221-0.011
			c0.086,0,0.157,0.004,0.216,0.011c0.058,0.007,0.106,0.018,0.142,0.032c0.036,0.014,0.061,0.032,0.075,0.053
			c0.014,0.021,0.021,0.045,0.021,0.074v0.445c0.112-0.112,0.221-0.212,0.328-0.298c0.107-0.086,0.216-0.159,0.328-0.217
			c0.111-0.058,0.226-0.101,0.345-0.13c0.118-0.028,0.244-0.042,0.379-0.042c0.279,0,0.517,0.054,0.714,0.163
			s0.357,0.258,0.482,0.448c0.124,0.189,0.215,0.409,0.272,0.661C132.128,95.851,132.157,96.12,132.157,96.405z M131.036,96.482
			c0-0.162-0.012-0.316-0.037-0.465c-0.024-0.148-0.065-0.281-0.124-0.396c-0.058-0.116-0.135-0.208-0.231-0.278
			c-0.096-0.069-0.215-0.104-0.358-0.104c-0.071,0-0.142,0.011-0.212,0.032c-0.07,0.022-0.141,0.056-0.214,0.104
			c-0.072,0.048-0.147,0.11-0.225,0.187c-0.076,0.076-0.158,0.171-0.244,0.284v1.247c0.151,0.189,0.295,0.335,0.432,0.439
			c0.137,0.103,0.28,0.155,0.428,0.155c0.14,0,0.259-0.035,0.358-0.106c0.098-0.071,0.179-0.163,0.241-0.277
			c0.063-0.115,0.11-0.244,0.139-0.389C131.021,96.77,131.036,96.625,131.036,96.482z"/>
		<path style="fill:#BCBEC0;" d="M141.346,98.351c0,0.028-0.007,0.053-0.022,0.074c-0.014,0.022-0.039,0.039-0.075,0.053
			c-0.036,0.014-0.082,0.025-0.141,0.032c-0.058,0.007-0.132,0.011-0.22,0.011c-0.095,0-0.171-0.004-0.23-0.011
			c-0.058-0.007-0.105-0.018-0.139-0.032c-0.034-0.014-0.058-0.032-0.072-0.053c-0.014-0.021-0.021-0.045-0.021-0.074v-0.437
			c-0.212,0.227-0.426,0.396-0.644,0.509c-0.219,0.113-0.444,0.17-0.679,0.17c-0.262,0-0.483-0.042-0.661-0.126
			c-0.178-0.085-0.322-0.201-0.432-0.348c-0.11-0.147-0.188-0.317-0.236-0.51c-0.047-0.193-0.07-0.435-0.07-0.723v-2.315
			c0-0.029,0.008-0.053,0.023-0.074c0.016-0.022,0.044-0.039,0.086-0.053c0.041-0.014,0.096-0.025,0.167-0.032
			c0.07-0.007,0.156-0.011,0.259-0.011c0.106,0,0.192,0.004,0.261,0.011c0.069,0.007,0.124,0.018,0.165,0.032
			c0.041,0.014,0.071,0.032,0.088,0.053c0.017,0.021,0.026,0.045,0.026,0.074v2.137c0,0.198,0.013,0.349,0.039,0.454
			c0.025,0.104,0.065,0.194,0.117,0.269c0.053,0.075,0.12,0.133,0.201,0.173c0.082,0.041,0.177,0.062,0.285,0.062
			c0.137,0,0.275-0.049,0.413-0.148c0.138-0.099,0.286-0.244,0.443-0.433v-2.514c0-0.029,0.008-0.053,0.023-0.074
			c0.016-0.022,0.044-0.039,0.086-0.053c0.041-0.014,0.096-0.025,0.165-0.032c0.068-0.007,0.156-0.011,0.261-0.011
			c0.106,0,0.193,0.004,0.262,0.011c0.068,0.007,0.123,0.018,0.163,0.032c0.04,0.014,0.068,0.032,0.086,0.053
			c0.017,0.021,0.026,0.045,0.026,0.074V98.351z"/>
		<path style="fill:#BCBEC0;" d="M149.395,97.978c0,0.124-0.008,0.22-0.023,0.286c-0.016,0.066-0.037,0.113-0.062,0.14
			c-0.026,0.027-0.064,0.051-0.114,0.072c-0.05,0.022-0.108,0.04-0.175,0.055c-0.067,0.015-0.14,0.027-0.219,0.036
			c-0.079,0.008-0.157,0.012-0.237,0.012c-0.214,0-0.399-0.027-0.556-0.08c-0.157-0.054-0.287-0.136-0.39-0.248
			c-0.103-0.112-0.178-0.253-0.226-0.422c-0.048-0.17-0.072-0.37-0.072-0.601V95.29h-0.458c-0.055,0-0.096-0.033-0.124-0.099
			c-0.029-0.066-0.044-0.177-0.044-0.333c0-0.082,0.004-0.151,0.011-0.207c0.007-0.057,0.018-0.102,0.033-0.134
			c0.014-0.032,0.032-0.055,0.053-0.069c0.022-0.015,0.047-0.022,0.075-0.022h0.454v-0.843c0-0.028,0.008-0.054,0.023-0.077
			c0.016-0.022,0.044-0.042,0.086-0.057c0.041-0.015,0.096-0.027,0.167-0.034c0.07-0.007,0.156-0.011,0.259-0.011
			c0.106,0,0.193,0.004,0.263,0.011c0.07,0.007,0.125,0.018,0.165,0.034c0.04,0.015,0.068,0.035,0.086,0.057
			c0.017,0.023,0.026,0.049,0.026,0.077v0.843h0.83c0.029,0,0.054,0.007,0.075,0.022c0.022,0.014,0.04,0.037,0.054,0.069
			c0.014,0.032,0.025,0.077,0.032,0.134c0.007,0.056,0.011,0.126,0.011,0.207c0,0.156-0.014,0.267-0.043,0.333
			c-0.029,0.066-0.07,0.099-0.125,0.099h-0.834v1.776c0,0.207,0.033,0.362,0.098,0.465c0.066,0.103,0.183,0.155,0.352,0.155
			c0.057,0,0.108-0.005,0.154-0.015c0.045-0.01,0.086-0.021,0.121-0.034c0.036-0.012,0.066-0.024,0.09-0.034
			c0.024-0.01,0.046-0.015,0.066-0.015c0.017,0,0.033,0.005,0.049,0.015c0.016,0.01,0.028,0.03,0.037,0.059
			c0.009,0.03,0.016,0.07,0.023,0.121C149.391,97.834,149.395,97.899,149.395,97.978z"/>
		<path style="fill:#BCBEC0;" d="M158.301,96.35c0,0.13-0.03,0.226-0.088,0.288c-0.058,0.062-0.138,0.093-0.241,0.093h-2.324
			c0,0.161,0.019,0.308,0.058,0.439c0.039,0.132,0.1,0.244,0.184,0.335c0.084,0.092,0.192,0.162,0.325,0.21
			c0.132,0.048,0.292,0.072,0.477,0.072c0.188,0,0.354-0.014,0.497-0.041c0.142-0.027,0.266-0.056,0.37-0.089
			c0.104-0.032,0.191-0.062,0.259-0.089s0.124-0.04,0.167-0.04c0.026,0,0.047,0.005,0.064,0.015c0.017,0.01,0.032,0.028,0.044,0.053
			c0.011,0.025,0.019,0.062,0.023,0.108c0.004,0.047,0.006,0.106,0.006,0.176c0,0.062-0.002,0.116-0.005,0.16
			c-0.002,0.044-0.007,0.081-0.012,0.112c-0.006,0.032-0.014,0.058-0.026,0.079c-0.012,0.022-0.027,0.042-0.045,0.062
			c-0.019,0.02-0.069,0.046-0.152,0.08c-0.082,0.034-0.188,0.068-0.317,0.1c-0.128,0.032-0.275,0.061-0.441,0.085
			c-0.165,0.024-0.342,0.036-0.531,0.036c-0.339,0-0.637-0.042-0.892-0.126c-0.255-0.085-0.468-0.214-0.64-0.386
			c-0.171-0.173-0.3-0.39-0.384-0.653c-0.084-0.263-0.126-0.571-0.126-0.924c0-0.336,0.044-0.64,0.133-0.91
			c0.088-0.27,0.216-0.499,0.384-0.687c0.169-0.188,0.373-0.331,0.615-0.43c0.241-0.099,0.513-0.148,0.815-0.148
			c0.319,0,0.592,0.046,0.819,0.14c0.226,0.093,0.413,0.223,0.558,0.388c0.146,0.166,0.253,0.362,0.321,0.587
			c0.069,0.226,0.103,0.472,0.103,0.738V96.35z M157.256,96.045c0.009-0.3-0.052-0.535-0.182-0.706
			c-0.13-0.171-0.33-0.257-0.602-0.257c-0.137,0-0.256,0.026-0.357,0.077c-0.101,0.051-0.185,0.119-0.252,0.205
			c-0.067,0.086-0.118,0.188-0.154,0.305c-0.036,0.117-0.057,0.243-0.062,0.375H157.256z"/>
		<path style="fill:#BCBEC0;" d="M166.347,94.922c0,0.102-0.002,0.185-0.008,0.25c-0.006,0.065-0.015,0.116-0.026,0.153
			c-0.011,0.037-0.026,0.062-0.044,0.076c-0.019,0.014-0.042,0.021-0.071,0.021c-0.023,0-0.048-0.005-0.077-0.015
			c-0.029-0.01-0.061-0.02-0.097-0.032c-0.036-0.012-0.075-0.022-0.117-0.032c-0.043-0.01-0.09-0.015-0.142-0.015
			c-0.059,0-0.12,0.012-0.179,0.035c-0.061,0.024-0.122,0.062-0.187,0.113c-0.064,0.051-0.131,0.119-0.201,0.204
			c-0.07,0.085-0.145,0.19-0.225,0.314v2.357c0,0.028-0.009,0.053-0.026,0.074c-0.017,0.022-0.047,0.039-0.088,0.053
			c-0.041,0.014-0.096,0.025-0.164,0.032c-0.068,0.007-0.156,0.011-0.261,0.011s-0.193-0.004-0.261-0.011
			c-0.068-0.007-0.123-0.018-0.164-0.032c-0.041-0.014-0.071-0.032-0.088-0.053c-0.017-0.021-0.026-0.045-0.026-0.074v-3.782
			c0-0.029,0.007-0.053,0.021-0.074c0.015-0.022,0.04-0.039,0.078-0.053c0.037-0.014,0.085-0.025,0.143-0.032
			c0.058-0.007,0.131-0.011,0.22-0.011c0.091,0,0.167,0.004,0.226,0.011c0.061,0.007,0.107,0.018,0.139,0.032
			c0.033,0.014,0.057,0.032,0.071,0.053c0.014,0.021,0.022,0.045,0.022,0.074v0.471c0.1-0.142,0.194-0.258,0.282-0.35
			c0.089-0.092,0.173-0.165,0.253-0.219c0.08-0.053,0.16-0.091,0.24-0.112c0.08-0.022,0.16-0.032,0.24-0.032
			c0.037,0,0.077,0.002,0.12,0.006c0.043,0.004,0.087,0.011,0.133,0.021c0.045,0.01,0.086,0.022,0.12,0.034
			c0.034,0.013,0.059,0.026,0.075,0.041c0.016,0.014,0.027,0.029,0.034,0.046c0.007,0.017,0.013,0.04,0.019,0.07
			c0.006,0.029,0.01,0.074,0.013,0.133C166.346,94.739,166.347,94.82,166.347,94.922z"/>
		<path style="fill:#BCBEC0;" d="M174.297,97.283c0,0.215-0.04,0.404-0.122,0.568c-0.081,0.164-0.196,0.301-0.344,0.412
			c-0.149,0.109-0.324,0.193-0.527,0.247c-0.202,0.055-0.423,0.082-0.659,0.082c-0.142,0-0.279-0.01-0.409-0.032
			c-0.13-0.021-0.247-0.048-0.349-0.08c-0.103-0.032-0.188-0.066-0.257-0.099c-0.069-0.034-0.118-0.066-0.149-0.096
			c-0.031-0.03-0.056-0.076-0.073-0.14c-0.017-0.063-0.025-0.157-0.025-0.282c0-0.082,0.002-0.147,0.008-0.197
			c0.006-0.049,0.015-0.089,0.026-0.119c0.011-0.03,0.025-0.049,0.042-0.059c0.017-0.01,0.039-0.015,0.065-0.015
			c0.031,0,0.078,0.018,0.139,0.053c0.061,0.035,0.138,0.075,0.229,0.116c0.091,0.043,0.198,0.082,0.319,0.119
			c0.121,0.037,0.258,0.055,0.412,0.055c0.097,0,0.184-0.01,0.259-0.029c0.075-0.02,0.142-0.049,0.197-0.085
			c0.056-0.037,0.098-0.084,0.126-0.14c0.029-0.056,0.044-0.122,0.044-0.195c0-0.085-0.026-0.157-0.079-0.218
			c-0.053-0.061-0.123-0.114-0.21-0.159c-0.087-0.046-0.185-0.088-0.295-0.128c-0.11-0.039-0.223-0.083-0.339-0.131
			c-0.115-0.048-0.228-0.103-0.338-0.165c-0.11-0.062-0.209-0.139-0.296-0.23c-0.087-0.09-0.156-0.199-0.209-0.326
			c-0.053-0.127-0.079-0.28-0.079-0.458c0-0.181,0.036-0.347,0.107-0.498c0.072-0.151,0.174-0.281,0.308-0.388
			c0.135-0.108,0.298-0.191,0.49-0.251c0.193-0.059,0.409-0.089,0.649-0.089c0.12,0,0.236,0.008,0.349,0.025
			c0.113,0.017,0.215,0.039,0.306,0.064c0.091,0.025,0.168,0.053,0.231,0.082c0.063,0.03,0.107,0.055,0.135,0.076
			c0.027,0.022,0.047,0.042,0.058,0.064c0.011,0.021,0.019,0.046,0.025,0.076c0.006,0.029,0.011,0.066,0.016,0.11
			c0.004,0.044,0.006,0.098,0.006,0.163c0,0.076-0.002,0.138-0.006,0.187c-0.005,0.048-0.012,0.086-0.022,0.114
			c-0.01,0.028-0.023,0.047-0.04,0.057c-0.017,0.01-0.037,0.015-0.06,0.015c-0.026,0-0.065-0.015-0.12-0.045
			c-0.055-0.03-0.122-0.062-0.203-0.096c-0.082-0.034-0.176-0.066-0.282-0.096c-0.107-0.029-0.23-0.045-0.367-0.045
			c-0.096,0-0.18,0.01-0.252,0.03c-0.072,0.02-0.13,0.048-0.176,0.085c-0.045,0.037-0.079,0.08-0.103,0.13
			c-0.023,0.049-0.034,0.102-0.034,0.159c0,0.088,0.027,0.161,0.082,0.22c0.054,0.059,0.125,0.112,0.214,0.157
			c0.089,0.045,0.189,0.088,0.302,0.128c0.113,0.039,0.226,0.082,0.342,0.129c0.115,0.047,0.23,0.101,0.342,0.163
			c0.113,0.062,0.213,0.139,0.302,0.229c0.088,0.09,0.16,0.199,0.213,0.325C174.27,96.961,174.297,97.11,174.297,97.283z"/>
	</g>
</g>
<g>
</g>
<g>
</g>
<g>
</g>
<g>
</g>
<g>
</g>
<g>
</g>
</svg>
