<?xml version="1.0" encoding="iso-8859-1"?>
<!-- Generator: Adobe Illustrator 19.2.1, SVG Export Plug-In . SVG Version: 6.00 Build 0)  -->
<svg version="1.1" id="Layer_1" xmlns="http://www.w3.org/2000/svg" xmlns:xlink="http://www.w3.org/1999/xlink" x="0px" y="0px"
	 viewBox="0 0 200 90" style="enable-background:new 0 0 200 90;" xml:space="preserve">
<g>
	<g>
		<g>
			<path style="fill:#BCBEC0;" d="M12.279,47.751h16.992v3.366H15.678v10.1h13.593v3.366H12.279V47.751z"/>
			<path style="fill:#BCBEC0;" d="M35.388,47.751h16.991v16.831H35.388V47.751z M38.785,61.217h10.196v-10.1H38.785V61.217z"/>
			<path style="fill:#BCBEC0;" d="M65.171,51.117h-3.398v13.465h-3.399V47.751h16.991v16.831h-3.397V51.117H68.57v13.465h-3.399
				V51.117z"/>
			<path style="fill:#BCBEC0;" d="M81.365,47.751h16.991v10.098H84.761v6.733h-3.397V47.751z M84.761,54.485h10.195v-3.368H84.761
				V54.485z"/>
			<path style="fill:#BCBEC0;" d="M104.402,47.751h3.399v13.465h10.195V47.751h3.397v16.831h-16.991V47.751z"/>
			<path style="fill:#BCBEC0;" d="M127.205,47.751h16.99v3.366H137.4v13.465H134V51.117h-6.795V47.751z"/>
			<path style="fill:#BCBEC0;" d="M150.191,47.751h16.991v3.366H153.59v3.368h6.797v3.364h-6.797v3.368h13.593v3.366h-16.991V47.751
				z"/>
			<path style="fill:#BCBEC0;" d="M183.562,57.849h-6.797v6.733h-3.397V47.751h16.991v10.098h-3.399v3.368h3.399v3.366h-3.399
				v-3.366h-3.398V57.849z M176.765,54.485h10.195v-3.368h-10.195V54.485z"/>
		</g>
		<g>
			<path style="fill:#57C1E8;" d="M35.838,82.036H25.643v6.735h-3.397V71.939h16.99v16.832h-3.399V82.036z M25.643,78.672h10.195
				v-3.367H25.643V78.672z"/>
			<path style="fill:#57C1E8;" d="M58.974,75.304H48.779v13.466H45.38V71.939h16.991v16.832h-3.397V75.304z"/>
			<path style="fill:#57C1E8;" d="M68.515,71.939h16.991v3.366H71.914v3.367h13.591v10.099H68.515v-3.366h13.594v-3.369H68.515
				V71.939z"/>
			<path style="fill:#57C1E8;" d="M91.764,71.939h3.397v13.466h3.399V71.939h3.399v13.466h3.396V71.939h3.4v16.832H91.764V71.939z"
				/>
			<path style="fill:#57C1E8;" d="M114.804,71.939h16.991v3.366h-13.592v3.367h6.797v3.364h-6.797v3.369h13.592v3.366h-16.991
				V71.939z"/>
			<path style="fill:#57C1E8;" d="M148.106,82.036h-6.795v6.735h-3.4V71.939h16.991v10.097h-3.397v3.369h3.397v3.366h-3.397v-3.366
				h-3.4V82.036z M141.311,78.672h10.195v-3.367h-10.195V78.672z"/>
			<path style="fill:#57C1E8;" d="M161.046,71.939h16.997v3.366h-13.6v3.367h13.595v10.099h-16.991v-3.366h13.591v-3.369h-13.591
				V71.939z"/>
		</g>
	</g>
	<g>
		<rect x="102.455" y="28.17" style="fill:#57C1E8;" width="3.825" height="3.792"/>
		<rect x="105.326" y="32.979" style="fill:#B6BD00;" width="3.824" height="3.792"/>
		<rect x="114.183" y="35.221" style="fill:#B6BD00;" width="3.825" height="3.792"/>
		<rect x="96.584" y="11.632" style="fill:#FF5000;" width="3.825" height="3.793"/>
		<rect x="110" y="30.966" style="fill:#FF5000;" width="3.825" height="3.792"/>
		<rect x="88.454" y="6.194" style="fill:#FF5000;" width="3.826" height="3.793"/>
		<rect x="107.559" y="26.132" style="fill:#B6BD00;" width="3.825" height="3.793"/>
		<rect x="102.679" y="22.912" style="fill:#FF5000;" width="3.827" height="3.786"/>
		<rect x="83.98" y="1.968" style="fill:#FF5000;" width="3.827" height="3.787"/>
		<rect x="97.599" y="25.128" style="fill:#57C1E8;" width="3.826" height="3.788"/>
		<rect x="98.27" y="18.856" style="fill:#57C1E8;" width="3.825" height="3.789"/>
		<rect x="102.884" y="16.669" style="fill:#57C1E8;" width="3.825" height="3.789"/>
		<rect x="97.889" y="5.729" style="fill:#57C1E8;" width="3.827" height="3.789"/>
		<rect x="103.116" y="2.903" style="fill:#57C1E8;" width="3.829" height="3.789"/>
		<rect x="106.677" y="8.162" style="fill:#B6BD00;" width="3.825" height="3.791"/>
		<rect x="97.578" y="30.866" style="fill:#B6BD00;" width="3.826" height="3.79"/>
		<rect x="93.737" y="16.266" style="fill:#FF5000;" width="3.828" height="3.788"/>
		<rect x="93.046" y="22.185" style="fill:#B6BD00;" width="3.829" height="3.789"/>
		<rect x="101.72" y="10.654" style="fill:#B6BD00;" width="3.829" height="3.79"/>
		<rect x="109.293" y="1.255" style="fill:#57C1E8;" width="3.83" height="3.79"/>
		<rect x="87.8" y="24.362" style="fill:#B6BD00;" width="3.822" height="3.791"/>
		<rect x="91.264" y="11.025" style="fill:#B6BD00;" width="3.822" height="3.791"/>
		<rect x="88.852" y="18.166" style="fill:#57C1E8;" width="3.826" height="3.791"/>
		<rect x="84.587" y="14.452" style="fill:#FF5000;" width="3.827" height="3.791"/>
	</g>
	<g>
	</g>
</g>
<g>
</g>
<g>
</g>
<g>
</g>
<g>
</g>
<g>
</g>
<g>
</g>
</svg>
